<?xml version="1.0" standalone="no"?>
<!DOCTYPE svg PUBLIC "-//W3C//DTD SVG 20010904//EN"
 "http://www.w3.org/TR/2001/REC-SVG-20010904/DTD/svg10.dtd">
<svg version="1.0" xmlns="http://www.w3.org/2000/svg"
 width="124.000000pt" height="124.000000pt" viewBox="0 0 124.000000 124.000000"
 preserveAspectRatio="xMidYMid meet">
<metadata>
Created by potrace 1.16, written by Peter Selinger 2001-2019
</metadata>
<g transform="translate(0.000000,124.000000) scale(0.100000,-0.100000)" stroke="none">
<path d="M555 1190 c-211 -35 -380 -178 -453 -383 -34 -98 -35 -250 -2 -347
23 -67 70 -153 115 -205 24 -29 25 -29 40 -11 13 17 11 23 -19 60 -238 293
-88 735 281 831 230 60 486 -61 589 -280 87 -182 68 -368 -53 -538 -23 -32
-32 -55 -28 -68 4 -10 10 -19 14 -19 4 0 27 26 51 58 198 265 134 633 -142
816 -104 69 -272 106 -393 86z"/>
<path d="M535 1088 c2 -7 25 -85 50 -173 56 -194 55 -189 59 -184 5 5 106 351
106 362 0 4 -49 7 -110 7 -83 0 -108 -3 -105 -12z"/>
<path d="M455 998 c-105 -54 -224 -198 -165 -198 5 0 16 13 24 28 24 46 101
116 156 142 27 13 50 29 50 37 0 18 -18 16 -65 -9z"/>
<path d="M767 1006 c-4 -9 12 -21 46 -37 53 -25 125 -90 154 -140 16 -27 43
-40 43 -21 0 20 -62 102 -101 134 -37 30 -118 78 -133 78 -2 0 -6 -6 -9 -14z"/>
<path d="M495 800 c-16 -16 -27 -31 -24 -33 15 -12 139 -77 139 -73 0 12 -72
136 -79 136 -4 0 -20 -13 -36 -30z"/>
<path d="M706 766 c-20 -35 -36 -67 -36 -71 0 -5 122 58 139 72 6 4 -50 63
-60 63 -4 0 -23 -29 -43 -64z"/>
<path d="M220 669 c0 -85 3 -110 13 -107 73 18 357 104 357 108 0 5 -347 110
-362 110 -5 0 -8 -50 -8 -111z"/>
<path d="M1000 764 c-25 -8 -103 -32 -175 -53 -71 -22 -123 -42 -115 -45 8 -3
85 -26 170 -51 85 -25 163 -48 173 -51 15 -5 17 4 17 105 0 123 3 118 -70 95z"/>
<path d="M585 625 c-11 -6 -42 -24 -69 -40 l-48 -27 30 -30 c16 -17 35 -27 41
-24 12 8 75 126 69 131 -2 2 -12 -3 -23 -10z"/>
<path d="M698 570 c20 -38 39 -70 42 -70 3 0 20 13 38 29 l32 29 -71 41 c-39
23 -72 41 -74 41 -2 0 13 -31 33 -70z"/>
<path d="M636 609 c-3 -8 -26 -85 -51 -172 -26 -87 -49 -165 -52 -173 -4 -12
14 -14 106 -14 67 0 111 4 111 10 0 12 -101 353 -106 359 -2 2 -6 -2 -8 -10z"/>
<path d="M991 482 c-14 -30 -36 -68 -49 -84 -19 -23 -22 -32 -13 -41 14 -14
39 13 75 83 33 64 39 87 24 93 -8 3 -22 -16 -37 -51z"/>
<path d="M246 522 c-7 -12 37 -105 70 -148 24 -30 29 -33 37 -19 6 12 3 23
-11 38 -12 12 -33 48 -47 80 -25 54 -38 67 -49 49z"/>
<path d="M269 173 c-13 -32 -26 -61 -28 -66 -1 -4 24 -7 58 -5 l61 3 30 63 29
62 -63 0 -62 0 -25 -57z"/>
<path d="M890 168 l28 -63 62 -3 c34 -2 60 1 59 5 -2 5 -15 34 -28 66 l-25 57
-62 0 -63 0 29 -62z"/>
<path d="M407 145 c-15 -31 -27 -58 -27 -60 0 -3 117 -5 260 -5 l260 0 -30 60
-30 60 -203 0 -203 0 -27 -55z"/>
</g>
</svg>

