<?xml version="1.0" standalone="no"?>
<!DOCTYPE svg PUBLIC "-//W3C//DTD SVG 20010904//EN"
 "http://www.w3.org/TR/2001/REC-SVG-20010904/DTD/svg10.dtd">
<svg version="1.0" xmlns="http://www.w3.org/2000/svg"
 width="122.000000pt" height="122.000000pt" viewBox="0 0 122.000000 122.000000"
 preserveAspectRatio="xMidYMid meet">
<metadata>
Created by potrace 1.16, written by Peter Selinger 2001-2019
</metadata>
<g transform="translate(0.000000,122.000000) scale(0.100000,-0.100000)" stroke="none">
<path d="M70 630 l0 -540 540 0 540 0 0 540 0 540 -540 0 -540 0 0 -540z
m1060 0 l0 -520 -520 0 -520 0 0 520 0 520 520 0 520 0 0 -520z"/>
<path d="M370 658 c-24 -117 -45 -223 -48 -235 -3 -18 0 -23 16 -23 17 0 23
11 34 63 l13 62 56 3 57 3 12 -66 c10 -53 16 -65 31 -65 24 0 24 5 -5 136 -13
60 -34 160 -47 222 -23 108 -24 112 -50 112 -26 0 -26 -1 -69 -212z m94 22
c10 -47 20 -93 22 -102 5 -16 -2 -18 -46 -18 -38 0 -51 4 -47 13 2 6 12 56 22
110 10 53 22 94 25 90 4 -5 15 -46 24 -93z"/>
<path d="M580 635 l0 -235 75 0 c68 0 75 2 75 20 0 18 -7 20 -55 20 l-55 0 0
215 c0 208 -1 215 -20 215 -19 0 -20 -7 -20 -235z"/>
<path d="M750 635 l0 -235 81 0 c71 0 80 2 77 18 -2 13 -15 18 -61 20 l-57 3
0 214 c0 208 -1 215 -20 215 -19 0 -20 -7 -20 -235z"/>
</g>
</svg>

