<?xml version="1.0" standalone="no"?>
<!DOCTYPE svg PUBLIC "-//W3C//DTD SVG 20010904//EN"
 "http://www.w3.org/TR/2001/REC-SVG-20010904/DTD/svg10.dtd">
<svg version="1.0" xmlns="http://www.w3.org/2000/svg"
 width="122.000000pt" height="123.000000pt" viewBox="0 0 122.000000 123.000000"
 preserveAspectRatio="xMidYMid meet">
<metadata>
Created by potrace 1.16, written by Peter Selinger 2001-2019
</metadata>
<g transform="translate(0.000000,123.000000) scale(0.100000,-0.100000)" stroke="none">
<path d="M270 821 c0 -286 3 -370 13 -374 6 -3 90 -64 186 -136 106 -79 179
-127 185 -122 244 185 348 261 356 261 6 0 10 131 10 370 l0 370 -375 0 -375
0 0 -369z m240 314 c10 -12 38 -15 130 -15 92 0 120 3 130 15 10 11 36 15 111
15 l99 0 -2 -337 -3 -338 -160 -122 c-88 -67 -164 -122 -169 -122 -5 -1 -85
56 -177 125 l-169 127 0 333 0 334 99 0 c75 0 101 -4 111 -15z"/>
<path d="M360 803 l1 -278 141 -104 c101 -75 145 -102 154 -95 8 5 72 52 143
104 l130 95 0 278 1 277 -285 0 -285 0 0 -277z m331 75 l-21 -73 55 -54 c51
-49 54 -55 38 -67 -10 -7 -56 -42 -103 -77 -47 -36 -87 -63 -89 -61 -2 2 13
34 34 71 l37 68 -58 53 -59 53 90 83 c50 46 91 83 93 81 2 -2 -6 -36 -17 -77z"/>
<path d="M90 877 l0 -203 59 -52 c33 -28 62 -52 65 -52 3 0 6 43 6 94 l0 95
-35 27 -35 26 0 104 0 104 40 0 c38 0 40 2 40 30 l0 30 -70 0 -70 0 0 -203z"/>
<path d="M1050 1050 c0 -28 2 -30 40 -30 l40 0 0 -104 0 -104 -35 -26 -35 -27
0 -95 c0 -51 3 -94 6 -94 3 0 29 20 56 45 28 25 54 45 59 45 5 0 9 94 9 210
l0 210 -70 0 -70 0 0 -30z"/>
<path d="M90 532 c0 -75 2 -81 26 -97 14 -9 109 -87 211 -173 101 -87 193
-163 204 -171 19 -13 19 -12 9 15 -6 16 -29 48 -52 71 -22 22 -37 46 -34 51 4
6 -48 56 -114 112 -79 66 -120 108 -120 121 0 11 -16 33 -35 50 -19 17 -35 37
-35 44 0 8 -13 23 -30 35 l-30 21 0 -79z"/>
<path d="M1158 588 c-16 -11 -28 -26 -28 -33 0 -8 -16 -27 -35 -42 -23 -18
-35 -37 -35 -53 0 -20 -25 -45 -115 -120 -79 -64 -115 -100 -115 -115 0 -11
-17 -35 -39 -55 -22 -19 -43 -48 -47 -65 l-7 -30 24 21 c51 45 366 310 397
335 33 25 33 26 30 101 l-3 76 -27 -20z"/>
</g>
</svg>

