<?xml version="1.0" standalone="no"?>
<!DOCTYPE svg PUBLIC "-//W3C//DTD SVG 20010904//EN"
 "http://www.w3.org/TR/2001/REC-SVG-20010904/DTD/svg10.dtd">
<svg version="1.0" xmlns="http://www.w3.org/2000/svg"
 width="116.000000pt" height="128.000000pt" viewBox="0 0 116.000000 128.000000"
 preserveAspectRatio="xMidYMid meet">
<metadata>
Created by potrace 1.16, written by Peter Selinger 2001-2019
</metadata>
<g transform="translate(0.000000,128.000000) scale(0.100000,-0.100000)" stroke="none">
<path d="M530 1181 c-36 -21 -134 -77 -218 -126 l-153 -88 31 -19 32 -19 174
102 c96 55 183 103 193 106 10 2 93 -39 203 -102 l187 -106 31 16 c18 9 28 20
24 24 -8 7 -433 251 -437 251 -1 0 -31 -17 -67 -39z"/>
<path d="M460 914 l0 -60 68 -67 68 -67 72 73 c72 72 72 73 72 127 l0 54 -70
-69 -70 -69 -70 69 -70 69 0 -60z"/>
<path d="M90 607 l0 -262 192 -110 c105 -61 207 -118 225 -128 l34 -18 -3 37
c-3 37 -4 38 -180 139 -98 56 -184 108 -193 115 -13 10 -15 48 -15 240 l0 227
-25 11 c-14 7 -28 12 -30 12 -3 0 -5 -118 -5 -263z"/>
<path d="M1068 853 l-28 -17 -2 -229 -3 -229 -192 -110 c-190 -109 -193 -111
-193 -144 0 -19 3 -34 8 -34 4 1 106 58 227 128 l220 127 3 263 c1 144 -1 262
-5 262 -5 0 -20 -8 -35 -17z"/>
<path d="M550 655 c1 -13 48 -71 53 -65 11 15 47 69 47 72 0 1 -23 3 -50 3
-28 0 -50 -4 -50 -10z"/>
<path d="M271 602 l-44 -25 82 -23 c45 -12 88 -25 96 -28 11 -4 10 -17 -4 -73
-10 -37 -21 -79 -25 -92 l-8 -23 49 27 c50 26 50 27 76 118 14 51 23 95 19 99
-9 8 -165 48 -184 47 -7 -1 -33 -13 -57 -27z"/>
<path d="M770 606 c-96 -25 -91 -14 -58 -138 19 -73 22 -79 65 -104 24 -14 46
-24 49 -22 2 2 -7 44 -20 92 -16 60 -20 89 -12 92 20 7 166 44 173 44 5 0 -13
14 -39 30 -56 35 -48 35 -158 6z"/>
</g>
</svg>

