<?xml version="1.0" standalone="no"?>
<!DOCTYPE svg PUBLIC "-//W3C//DTD SVG 20010904//EN"
 "http://www.w3.org/TR/2001/REC-SVG-20010904/DTD/svg10.dtd">
<svg version="1.0" xmlns="http://www.w3.org/2000/svg"
 width="116.000000pt" height="128.000000pt" viewBox="0 0 116.000000 128.000000"
 preserveAspectRatio="xMidYMid meet">
<metadata>
Created by potrace 1.16, written by Peter Selinger 2001-2019
</metadata>
<g transform="translate(0.000000,128.000000) scale(0.100000,-0.100000)" stroke="none">
<path d="M514 1187 c-39 -23 -132 -78 -208 -121 l-138 -79 23 -18 c13 -10 26
-19 29 -19 3 0 89 49 193 109 l187 109 225 -130 225 -131 0 -224 c0 -221 0
-225 23 -244 12 -10 25 -18 30 -19 4 0 6 118 5 262 l-3 262 -245 143 c-135 78
-252 142 -260 142 -8 -1 -47 -20 -86 -42z"/>
<path d="M436 914 c-54 -18 -101 -36 -105 -39 -3 -3 8 -16 23 -29 l29 -23 -62
-73 c-34 -41 -60 -77 -59 -81 3 -8 232 -198 256 -213 10 -6 71 49 72 64 0 3
-43 39 -95 80 -52 41 -94 80 -94 85 0 6 13 25 30 43 l30 34 33 -26 33 -25 12
100 c13 117 14 139 4 138 -5 -1 -53 -16 -107 -35z"/>
<path d="M92 613 l3 -257 245 -143 c135 -78 250 -142 257 -142 7 -1 107 54
223 120 l211 122 -27 18 c-15 10 -30 16 -33 15 -3 -2 -86 -49 -183 -105 -98
-55 -183 -101 -189 -101 -7 0 -101 51 -208 114 -108 62 -206 119 -218 125 -23
12 -23 14 -23 236 0 220 0 224 -22 239 -12 9 -26 16 -30 16 -5 0 -7 -116 -6
-257z"/>
<path d="M626 816 l-26 -35 92 -77 c51 -42 94 -79 96 -83 1 -3 -12 -23 -29
-44 l-32 -38 -28 27 c-16 15 -31 26 -33 23 -5 -5 -33 -228 -29 -233 2 -2 134
41 213 70 12 4 8 11 -14 29 l-30 24 62 75 c34 41 62 76 62 79 0 7 -247 206
-263 213 -8 3 -25 -9 -41 -30z"/>
</g>
</svg>

