<?xml version="1.0" standalone="no"?>
<!DOCTYPE svg PUBLIC "-//W3C//DTD SVG 20010904//EN"
 "http://www.w3.org/TR/2001/REC-SVG-20010904/DTD/svg10.dtd">
<svg version="1.0" xmlns="http://www.w3.org/2000/svg"
 width="116.000000pt" height="125.000000pt" viewBox="0 0 116.000000 125.000000"
 preserveAspectRatio="xMidYMid meet">
<metadata>
Created by potrace 1.16, written by Peter Selinger 2001-2019
</metadata>
<g transform="translate(0.000000,125.000000) scale(0.100000,-0.100000)" stroke="none">
<path d="M652 1162 c3 -35 5 -37 201 -151 l197 -115 0 -256 0 -257 -197 -114
c-188 -109 -198 -116 -201 -147 -2 -18 0 -32 5 -32 4 1 107 58 228 129 l220
128 3 291 2 291 -22 14 c-13 8 -117 69 -231 135 l-208 121 3 -37z"/>
<path d="M315 1062 l-220 -128 0 -294 0 -294 180 -104 c99 -57 199 -115 223
-128 l42 -25 0 34 c0 34 -2 35 -195 147 l-195 112 0 259 c0 258 0 258 23 270
12 6 100 57 195 112 169 98 172 100 172 133 0 19 -1 34 -2 34 -2 0 -102 -58
-223 -128z"/>
<path d="M561 892 c-19 -64 -37 -121 -41 -125 -4 -5 -25 2 -46 15 -68 42 -68
42 -59 27 5 -8 20 -32 33 -53 31 -50 29 -51 -112 -91 -58 -16 -106 -32 -106
-35 0 -3 54 -20 120 -39 113 -32 132 -44 112 -67 -5 -5 -19 -27 -32 -48 l-24
-40 56 32 c30 18 58 32 61 32 3 0 20 -54 38 -120 18 -66 36 -120 39 -120 3 0
21 55 40 123 18 67 34 123 35 125 2 2 25 -12 52 -30 26 -19 54 -38 61 -42 14
-8 -28 62 -57 97 -8 9 -12 19 -9 22 2 2 59 19 126 37 67 18 122 35 122 38 0 3
-54 23 -120 44 -66 21 -120 40 -120 42 0 2 16 29 35 59 l36 55 -55 -35 c-66
-42 -59 -49 -106 108 -18 59 -36 107 -39 107 -3 0 -21 -53 -40 -118z m64 -238
l27 -27 -26 -26 -26 -26 -26 26 -26 26 24 26 c12 14 24 25 25 26 1 1 14 -11
28 -25z"/>
</g>
</svg>

