<?xml version="1.0" standalone="no"?>
<!DOCTYPE svg PUBLIC "-//W3C//DTD SVG 20010904//EN"
 "http://www.w3.org/TR/2001/REC-SVG-20010904/DTD/svg10.dtd">
<svg version="1.0" xmlns="http://www.w3.org/2000/svg"
 width="128.000000pt" height="127.000000pt" viewBox="0 0 128.000000 127.000000"
 preserveAspectRatio="xMidYMid meet">
<metadata>
Created by potrace 1.16, written by Peter Selinger 2001-2019
</metadata>
<g transform="translate(0.000000,127.000000) scale(0.100000,-0.100000)" stroke="none">
<path d="M957 1163 c-27 -32 -180 -190 -340 -351 l-291 -292 -64 62 c-52 51
-63 58 -58 38 3 -14 6 -42 6 -63 0 -30 5 -39 23 -46 28 -11 46 -33 86 -103 25
-45 43 -63 89 -88 66 -37 102 -68 102 -87 0 -7 10 -15 23 -17 38 -8 97 -12 97
-7 0 3 -26 32 -57 63 l-58 58 265 263 c146 145 302 297 348 339 l83 76 -22 81
-22 81 -70 21 c-38 11 -75 23 -81 25 -6 2 -33 -22 -59 -53z"/>
<path d="M960 480 l0 -70 -75 0 -76 0 3 -62 3 -63 73 -3 72 -3 0 -69 0 -70 60
0 60 0 0 70 0 70 70 0 70 0 0 65 0 65 -70 0 -70 0 0 70 0 70 -60 0 -60 0 0
-70z"/>
<path d="M195 330 c-39 -39 -56 -50 -81 -50 l-32 0 20 -67 c12 -38 24 -72 29
-77 9 -10 115 -46 135 -46 7 0 9 10 7 24 -4 20 6 37 48 81 l53 56 -22 44 c-15
31 -33 50 -61 65 -22 11 -42 20 -43 20 -2 0 -26 -22 -53 -50z"/>
</g>
</svg>

