<?xml version="1.0" standalone="no"?>
<!DOCTYPE svg PUBLIC "-//W3C//DTD SVG 20010904//EN"
 "http://www.w3.org/TR/2001/REC-SVG-20010904/DTD/svg10.dtd">
<svg version="1.0" xmlns="http://www.w3.org/2000/svg"
 width="116.000000pt" height="128.000000pt" viewBox="0 0 116.000000 128.000000"
 preserveAspectRatio="xMidYMid meet">
<metadata>
Created by potrace 1.16, written by Peter Selinger 2001-2019
</metadata>
<g transform="translate(0.000000,128.000000) scale(0.100000,-0.100000)" stroke="none">
<path d="M340 1087 l-245 -143 0 -294 0 -294 230 -133 c127 -74 240 -139 253
-145 28 -14 19 -18 307 150 l220 129 0 294 0 293 -245 142 c-135 79 -252 143
-260 143 -8 0 -125 -64 -260 -142z m710 -437 l0 -256 -212 -124 c-116 -67
-219 -125 -229 -127 -10 -3 -65 22 -126 58 -59 34 -159 91 -221 127 l-112 64
0 258 0 257 225 131 226 130 224 -131 225 -130 0 -257z"/>
<path d="M330 676 l0 -222 97 -59 c157 -98 143 -94 143 -34 l0 51 -42 -7 -43
-7 43 44 c38 40 42 48 42 94 l0 51 -60 18 c-33 10 -60 21 -60 25 0 4 27 15 60
25 l60 18 0 62 0 62 -120 51 -120 50 0 -222z"/>
<path d="M738 848 l-118 -50 0 -39 c0 -44 -4 -43 98 -14 23 7 42 11 42 8 0 -2
-27 -29 -60 -60 -33 -30 -60 -58 -60 -62 0 -3 18 -14 40 -23 22 -9 40 -20 40
-25 0 -4 -23 -34 -50 -66 -73 -86 -66 -97 45 -70 14 3 9 -4 -15 -24 -75 -61
-82 -69 -78 -90 3 -20 13 -15 120 50 l117 72 1 223 c0 122 -1 222 -2 221 -2 0
-56 -23 -120 -51z"/>
</g>
</svg>

