<?xml version="1.0" standalone="no"?>
<!DOCTYPE svg PUBLIC "-//W3C//DTD SVG 20010904//EN"
 "http://www.w3.org/TR/2001/REC-SVG-20010904/DTD/svg10.dtd">
<svg version="1.0" xmlns="http://www.w3.org/2000/svg"
 width="128.000000pt" height="119.000000pt" viewBox="0 0 128.000000 119.000000"
 preserveAspectRatio="xMidYMid meet">
<metadata>
Created by potrace 1.16, written by Peter Selinger 2001-2019
</metadata>
<g transform="translate(0.000000,119.000000) scale(0.100000,-0.100000)" stroke="none">
<path d="M592 1097 c-29 -29 -52 -55 -52 -59 0 -15 48 7 78 35 l32 31 50 -49
c39 -39 52 -47 62 -37 10 10 -1 25 -47 72 -33 33 -62 60 -65 60 -3 0 -29 -24
-58 -53z"/>
<path d="M342 883 c50 -87 96 -164 102 -170 9 -10 36 21 118 132 l107 145 -94
0 c-90 0 -95 1 -111 25 -16 24 -21 25 -114 25 l-98 0 90 -157z"/>
<path d="M800 995 c-11 -21 -21 -25 -55 -25 l-42 0 -112 -150 c-95 -129 -110
-153 -101 -170 13 -24 19 -9 -112 -234 -54 -93 -97 -170 -96 -172 3 -2 143 -6
179 -5 9 1 21 12 27 26 10 23 17 25 71 25 l59 0 69 98 c134 188 137 193 125
213 -10 15 5 48 94 201 58 101 110 188 115 194 16 20 -3 24 -106 24 -98 0
-102 -1 -115 -25z m-106 -249 l-25 -69 30 -31 31 -32 -78 -77 c-43 -42 -81
-77 -85 -77 -4 0 9 31 28 70 l35 69 -32 36 -31 36 73 74 c41 41 75 73 76 72 2
-2 -8 -34 -22 -71z"/>
<path d="M275 780 c-40 -40 -56 -50 -83 -50 -28 0 -45 -11 -95 -60 l-62 -60
60 -54 c48 -44 67 -55 95 -56 27 0 44 -10 82 -47 38 -37 50 -45 60 -35 10 10
-7 32 -80 105 l-92 92 91 91 c72 72 89 95 82 108 -7 13 -16 8 -58 -34z"/>
<path d="M964 816 c-5 -13 16 -40 85 -110 l91 -91 -87 -87 c-65 -65 -84 -90
-79 -104 6 -15 14 -11 54 29 35 35 56 47 77 47 22 0 43 14 86 56 l56 55 -62
60 c-40 38 -70 59 -86 59 -15 0 -42 19 -76 52 -44 44 -53 49 -59 34z"/>
<path d="M1000 623 l0 -67 35 34 35 34 -32 33 c-18 18 -33 33 -35 33 -2 0 -3
-30 -3 -67z"/>
<path d="M277 652 l-27 -28 28 -27 c15 -15 31 -27 35 -27 4 0 6 25 5 55 -1 30
-5 55 -8 55 -4 0 -18 -13 -33 -28z"/>
<path d="M828 523 c-9 -16 -53 -79 -97 -141 -45 -63 -81 -116 -81 -118 0 -2
38 -4 83 -4 80 0 84 -1 95 -25 11 -24 14 -25 117 -25 l106 0 -33 58 c-100 175
-164 282 -168 282 -3 0 -13 -12 -22 -27z"/>
<path d="M514 229 c-4 -6 24 -42 65 -83 l71 -71 72 73 c64 64 70 72 48 72 -16
0 -41 -17 -72 -47 l-48 -47 -58 57 c-61 60 -67 64 -78 46z"/>
</g>
</svg>

