<?xml version="1.0" standalone="no"?>
<!DOCTYPE svg PUBLIC "-//W3C//DTD SVG 20010904//EN"
 "http://www.w3.org/TR/2001/REC-SVG-20010904/DTD/svg10.dtd">
<svg version="1.0" xmlns="http://www.w3.org/2000/svg"
 width="126.000000pt" height="126.000000pt" viewBox="0 0 126.000000 126.000000"
 preserveAspectRatio="xMidYMid meet">
<metadata>
Created by potrace 1.16, written by Peter Selinger 2001-2019
</metadata>
<g transform="translate(0.000000,126.000000) scale(0.100000,-0.100000)" stroke="none">
<path d="M300 985 l-215 -215 69 -69 c66 -67 72 -70 125 -76 31 -3 94 -10 141
-15 47 -5 201 -20 343 -32 158 -13 265 -27 275 -35 15 -11 0 -29 -125 -155
-141 -140 -142 -142 -163 -123 -17 16 -20 30 -20 107 l0 88 -55 0 -55 0 0
-113 0 -113 75 -74 75 -75 217 218 218 217 -73 73 c-62 62 -78 73 -110 75 -20
1 -127 11 -237 22 -110 10 -265 24 -345 30 -172 14 -189 17 -196 33 -4 12 262
287 277 287 4 0 14 -11 23 -25 11 -17 16 -48 16 -105 l0 -80 60 0 60 0 0 109
0 109 -76 73 c-41 41 -78 75 -82 77 -4 1 -104 -95 -222 -213z"/>
<path d="M822 938 c-12 -46 -24 -95 -28 -109 l-6 -27 112 31 111 31 -78 78
c-43 43 -80 78 -84 78 -3 0 -16 -37 -27 -82z"/>
<path d="M366 480 c-54 -16 -100 -31 -102 -33 -2 -2 31 -38 73 -80 42 -43 80
-74 83 -70 4 5 17 46 29 93 12 47 24 93 27 103 6 21 11 21 -110 -13z"/>
</g>
</svg>

