<?xml version="1.0" standalone="no"?>
<!DOCTYPE svg PUBLIC "-//W3C//DTD SVG 20010904//EN"
 "http://www.w3.org/TR/2001/REC-SVG-20010904/DTD/svg10.dtd">
<svg version="1.0" xmlns="http://www.w3.org/2000/svg"
 width="122.000000pt" height="119.000000pt" viewBox="0 0 122.000000 119.000000"
 preserveAspectRatio="xMidYMid meet">
<metadata>
Created by potrace 1.16, written by Peter Selinger 2001-2019
</metadata>
<g transform="translate(0.000000,119.000000) scale(0.100000,-0.100000)" stroke="none">
<path d="M358 1088 c-11 -37 -18 -44 -76 -70 l-65 -29 7 -52 c3 -29 6 -179 6
-334 l0 -282 72 -42 c40 -23 127 -75 194 -116 67 -40 126 -73 133 -73 6 0 99
52 206 116 l194 116 3 335 3 336 -45 18 c-69 29 -73 32 -88 77 l-14 42 -258 0
-259 0 -13 -42z m493 -102 c10 -27 21 -36 62 -51 l50 -18 -7 -90 c-3 -50 -6
-172 -6 -271 l0 -181 -38 -21 c-20 -11 -92 -53 -159 -93 l-123 -73 -160 93
-160 94 0 151 c0 83 -3 205 -6 271 l-7 119 47 18 c35 14 51 27 64 52 l16 34
207 0 208 0 12 -34z"/>
<path d="M427 894 c-4 -4 -7 -116 -7 -250 l0 -242 85 -46 c47 -25 87 -46 90
-46 3 0 4 132 3 293 l-3 292 -80 3 c-45 1 -84 0 -88 -4z"/>
<path d="M677 893 c-7 -6 -10 -583 -4 -583 2 0 39 19 83 43 l79 42 3 253 2
252 -78 0 c-43 0 -82 -3 -85 -7z"/>
<path d="M90 671 l0 -149 33 -24 c17 -13 38 -28 45 -32 9 -6 12 32 12 173 l0
181 -45 0 -45 0 0 -149z"/>
<path d="M1080 639 c0 -141 3 -179 13 -173 6 4 27 19 45 32 l32 24 0 149 0
149 -45 0 -45 0 0 -181z"/>
</g>
</svg>

