<?xml version="1.0" standalone="no"?>
<!DOCTYPE svg PUBLIC "-//W3C//DTD SVG 20010904//EN"
 "http://www.w3.org/TR/2001/REC-SVG-20010904/DTD/svg10.dtd">
<svg version="1.0" xmlns="http://www.w3.org/2000/svg"
 width="112.000000pt" height="125.000000pt" viewBox="0 0 112.000000 125.000000"
 preserveAspectRatio="xMidYMid meet">
<metadata>
Created by potrace 1.16, written by Peter Selinger 2001-2019
</metadata>
<g transform="translate(0.000000,125.000000) scale(0.100000,-0.100000)" stroke="none">
<path d="M524 1196 c-11 -8 -43 -27 -70 -43 -28 -15 -121 -68 -207 -118 l-156
-90 -1 -267 0 -267 35 20 35 21 0 228 0 228 195 112 195 112 0 39 c0 45 1 44
-26 25z"/>
<path d="M630 1172 l0 -37 195 -114 195 -113 0 -228 0 -228 35 -21 35 -20 0
267 0 267 -182 105 c-100 58 -204 117 -230 133 l-48 27 0 -38z"/>
<path d="M372 926 c-2 -29 1 -35 20 -38 21 -3 23 -9 26 -69 l3 -66 69 -49 c38
-27 69 -52 70 -56 0 -3 -31 -29 -70 -58 l-69 -51 -3 -67 c-3 -61 -5 -67 -26
-70 -19 -3 -23 -9 -20 -35 l3 -32 223 -3 222 -2 0 35 c0 28 -4 35 -20 35 -18
0 -20 7 -20 69 l0 70 -62 47 c-35 26 -67 51 -72 55 -4 4 24 30 63 59 l71 52 0
69 c0 62 2 69 20 69 16 0 20 7 20 35 l0 35 -223 0 -223 0 -2 -34z m368 -94 c0
-57 -1 -59 -41 -88 -22 -16 -53 -39 -69 -52 l-29 -23 -74 55 -73 56 2 47 c1
27 3 51 3 56 1 4 64 7 141 7 l140 0 0 -58z m-67 -263 l67 -49 0 -60 0 -61
-142 3 -143 3 0 54 0 54 70 53 c39 30 72 54 75 53 3 0 35 -22 73 -50z"/>
<path d="M530 756 c0 -2 16 -16 35 -30 l34 -27 41 27 c22 15 40 28 40 30 0 2
-34 4 -75 4 -41 0 -75 -2 -75 -4z"/>
<path d="M536 504 c-83 -67 -78 -74 59 -74 103 0 115 2 114 18 0 17 -91 102
-108 102 -5 0 -34 -20 -65 -46z"/>
<path d="M149 361 l-23 -18 100 -58 c54 -32 159 -93 231 -136 l133 -78 72 43
c40 24 129 76 198 116 69 40 140 82 159 93 l34 20 -23 19 c-30 25 -37 24 -111
-20 -35 -22 -123 -73 -196 -116 l-132 -77 -168 97 c-92 54 -181 106 -198 116
-38 23 -47 23 -76 -1z"/>
</g>
</svg>

