<?xml version="1.0" standalone="no"?>
<!DOCTYPE svg PUBLIC "-//W3C//DTD SVG 20010904//EN"
 "http://www.w3.org/TR/2001/REC-SVG-20010904/DTD/svg10.dtd">
<svg version="1.0" xmlns="http://www.w3.org/2000/svg"
 width="116.000000pt" height="128.000000pt" viewBox="0 0 116.000000 128.000000"
 preserveAspectRatio="xMidYMid meet">
<metadata>
Created by potrace 1.16, written by Peter Selinger 2001-2019
</metadata>
<g transform="translate(0.000000,128.000000) scale(0.100000,-0.100000)" stroke="none">
<path d="M520 1191 c-36 -21 -146 -85 -245 -142 l-180 -105 0 -293 0 -292 249
-145 c137 -79 252 -144 256 -144 4 0 119 65 256 144 l249 144 0 293 0 293 -85
49 c-335 194 -412 237 -423 236 -6 0 -41 -17 -77 -38z m142 -59 c35 -21 136
-80 226 -131 l162 -93 0 -257 0 -257 -217 -124 c-119 -69 -224 -125 -233 -125
-9 0 -114 56 -233 125 l-217 124 0 257 0 256 223 131 c122 71 223 130 224 131
2 1 31 -16 65 -37z"/>
<path d="M452 808 c-7 -105 -14 -193 -16 -195 -4 -4 -102 97 -136 140 -12 15
-24 26 -26 24 -2 -2 14 -59 36 -127 21 -68 38 -126 36 -128 -2 -2 -29 4 -61
13 -31 9 -58 15 -60 13 -2 -1 17 -30 42 -62 29 -38 42 -61 34 -64 -7 -2 52
-39 131 -81 l143 -77 3 225 2 225 -51 135 c-29 75 -55 139 -58 144 -4 4 -13
-79 -19 -185z"/>
<path d="M682 861 l-52 -137 0 -231 0 -231 139 76 c77 42 137 80 134 84 -2 5
14 34 37 64 23 31 40 57 38 59 -2 3 -28 -2 -58 -10 -30 -8 -56 -13 -58 -10 -2
2 14 61 36 132 l41 128 -84 -90 -83 -90 -6 55 c-3 30 -10 118 -16 195 -6 76
-12 140 -13 141 -1 2 -26 -59 -55 -135z"/>
</g>
</svg>

