<?xml version="1.0" standalone="no"?>
<!DOCTYPE svg PUBLIC "-//W3C//DTD SVG 20010904//EN"
 "http://www.w3.org/TR/2001/REC-SVG-20010904/DTD/svg10.dtd">
<svg version="1.0" xmlns="http://www.w3.org/2000/svg"
 width="100.000000pt" height="124.000000pt" viewBox="0 0 100.000000 124.000000"
 preserveAspectRatio="xMidYMid meet">
<metadata>
Created by potrace 1.16, written by Peter Selinger 2001-2019
</metadata>
<g transform="translate(0.000000,124.000000) scale(0.100000,-0.100000)" stroke="none">
<path d="M90 1045 l0 -156 63 -74 c34 -40 65 -74 70 -74 4 -1 7 24 7 56 0 44
-5 63 -25 89 -23 30 -25 41 -25 133 l0 101 89 0 c79 0 92 -2 104 -20 8 -11 45
-52 82 -91 l68 -70 84 91 85 90 94 0 94 0 0 -92 c0 -79 -3 -95 -21 -114 -17
-18 -20 -32 -17 -85 l3 -63 62 74 63 75 0 143 0 142 -440 0 -440 0 0 -155z"/>
<path d="M290 855 l0 -100 120 -120 120 -120 120 120 120 120 0 100 0 100
-120 -120 -120 -120 -120 120 -120 120 0 -100z"/>
<path d="M290 585 l0 -100 120 -120 120 -120 120 120 120 120 0 92 c0 51 -3
93 -7 93 -4 0 -58 -51 -120 -112 l-113 -113 -120 120 -120 120 0 -100z"/>
<path d="M153 473 l-63 -75 0 -159 0 -159 440 0 440 0 0 148 0 147 -63 74 -62
74 -3 -63 c-3 -52 0 -66 17 -84 18 -19 21 -35 21 -114 l0 -92 -350 0 -350 0 0
101 c0 93 2 103 25 131 21 24 25 40 25 89 0 32 -3 59 -7 58 -5 0 -36 -34 -70
-76z"/>
</g>
</svg>

