<?xml version="1.0" standalone="no"?>
<!DOCTYPE svg PUBLIC "-//W3C//DTD SVG 20010904//EN"
 "http://www.w3.org/TR/2001/REC-SVG-20010904/DTD/svg10.dtd">
<svg version="1.0" xmlns="http://www.w3.org/2000/svg"
 width="128.000000pt" height="127.000000pt" viewBox="0 0 128.000000 127.000000"
 preserveAspectRatio="xMidYMid meet">
<metadata>
Created by potrace 1.16, written by Peter Selinger 2001-2019
</metadata>
<g transform="translate(0.000000,127.000000) scale(0.100000,-0.100000)" stroke="none">
<path d="M190 1209 c0 -2 20 -92 44 -199 24 -107 42 -196 41 -197 -1 -2 -56 8
-123 20 -67 13 -122 22 -122 21 0 -2 117 -180 260 -396 143 -216 260 -390 260
-387 0 4 -70 149 -155 324 l-155 318 67 -7 c38 -4 78 -9 91 -13 12 -3 22 -1
22 5 0 5 -49 121 -109 256 -95 216 -121 272 -121 255z"/>
<path d="M1073 1193 c-3 -10 -27 -65 -53 -123 -94 -207 -163 -370 -159 -374 2
-2 35 1 73 6 37 5 76 8 86 6 18 -3 20 1 -210 -465 -44 -90 -78 -163 -75 -163
4 0 515 768 515 774 0 2 -55 -8 -121 -21 -67 -13 -123 -22 -124 -21 -2 3 66
320 80 371 8 30 -2 38 -12 10z"/>
<path d="M580 1090 c35 -39 66 -69 70 -68 4 2 35 33 69 71 l63 67 -132 0 -132
0 62 -70z"/>
<path d="M510 831 l-1 -270 68 -76 68 -75 67 72 68 73 0 275 -1 275 -62 -69
c-35 -38 -68 -67 -73 -65 -6 2 -34 31 -64 64 -30 33 -57 61 -61 63 -4 2 -8
-118 -9 -267z"/>
<path d="M100 513 c1 -5 9 -42 18 -83 l17 -75 110 -83 c61 -45 119 -88 130
-94 19 -10 19 -10 4 8 -9 10 -73 90 -144 177 -70 86 -130 157 -131 157 -2 0
-4 -3 -4 -7z"/>
<path d="M1049 368 c-181 -222 -166 -203 -143 -190 10 7 68 49 129 94 l110 83
17 79 c10 44 17 81 15 83 -3 2 -60 -65 -128 -149z"/>
<path d="M751 454 c-12 -15 -40 -47 -63 -72 l-41 -45 -64 69 c-36 38 -63 62
-60 54 18 -67 122 -328 128 -323 11 11 130 335 125 340 -2 2 -13 -8 -25 -23z"/>
</g>
</svg>

