<?xml version="1.0" standalone="no"?>
<!DOCTYPE svg PUBLIC "-//W3C//DTD SVG 20010904//EN"
 "http://www.w3.org/TR/2001/REC-SVG-20010904/DTD/svg10.dtd">
<svg version="1.0" xmlns="http://www.w3.org/2000/svg"
 width="116.000000pt" height="128.000000pt" viewBox="0 0 116.000000 128.000000"
 preserveAspectRatio="xMidYMid meet">
<metadata>
Created by potrace 1.16, written by Peter Selinger 2001-2019
</metadata>
<g transform="translate(0.000000,128.000000) scale(0.100000,-0.100000)" stroke="none">
<path d="M605 1230 c-3 -4 -103 -63 -222 -130 -120 -67 -235 -133 -255 -146
l-38 -24 0 -125 0 -125 35 0 35 0 0 105 0 105 38 24 c40 26 283 165 370 211
l52 28 48 -26 c26 -14 126 -70 222 -125 l175 -99 3 -112 3 -111 29 0 30 0 0
133 0 132 -118 67 c-323 183 -402 226 -407 218z"/>
<path d="M530 820 l0 -89 -97 -3 -98 -3 -3 -92 -3 -92 98 -3 98 -3 3 -92 3
-93 89 0 90 0 0 95 0 95 95 0 95 0 0 95 0 95 -95 0 -95 0 0 90 0 90 -90 0 -90
0 0 -90z"/>
<path d="M90 461 l0 -119 263 -150 262 -149 40 22 c22 12 138 77 258 145 l217
122 0 124 0 124 -30 0 -29 0 -3 -102 -3 -103 -225 -127 -224 -127 -31 18 c-16
10 -119 69 -227 130 l-198 112 0 100 0 99 -35 0 -35 0 0 -119z"/>
</g>
</svg>

