<?xml version="1.0" standalone="no"?>
<!DOCTYPE svg PUBLIC "-//W3C//DTD SVG 20010904//EN"
 "http://www.w3.org/TR/2001/REC-SVG-20010904/DTD/svg10.dtd">
<svg version="1.0" xmlns="http://www.w3.org/2000/svg"
 width="116.000000pt" height="128.000000pt" viewBox="0 0 116.000000 128.000000"
 preserveAspectRatio="xMidYMid meet">
<metadata>
Created by potrace 1.16, written by Peter Selinger 2001-2019
</metadata>
<g transform="translate(0.000000,128.000000) scale(0.100000,-0.100000)" stroke="none">
<path d="M380 1110 c-113 -66 -224 -131 -248 -144 l-42 -26 0 -289 0 -289 131
-76 c71 -42 132 -76 135 -76 2 0 4 15 4 33 0 30 -6 35 -105 91 l-105 60 0 257
0 256 77 45 c43 25 144 84 225 131 l147 85 226 -130 225 -130 0 -257 0 -257
-110 -63 c-107 -61 -110 -64 -110 -98 l0 -35 33 20 c17 11 79 47 137 80 l105
61 3 289 c2 224 -1 292 -10 299 -30 24 -489 283 -500 283 -7 -1 -105 -54 -218
-120z"/>
<path d="M410 856 l-75 -44 0 -173 0 -173 65 -37 65 -36 5 -128 5 -127 59 -36
58 -36 64 34 64 34 0 125 0 126 70 39 70 40 0 172 0 172 -81 46 c-45 25 -86
46 -90 46 -5 0 -9 -77 -9 -170 l0 -170 -44 -21 -43 -22 -47 28 -46 27 0 164
c0 90 -3 164 -7 163 -5 0 -42 -20 -83 -43z"/>
</g>
</svg>

