<?xml version="1.0" standalone="no"?>
<!DOCTYPE svg PUBLIC "-//W3C//DTD SVG 20010904//EN"
 "http://www.w3.org/TR/2001/REC-SVG-20010904/DTD/svg10.dtd">
<svg version="1.0" xmlns="http://www.w3.org/2000/svg"
 width="128.000000pt" height="127.000000pt" viewBox="0 0 128.000000 127.000000"
 preserveAspectRatio="xMidYMid meet">
<metadata>
Created by potrace 1.16, written by Peter Selinger 2001-2019
</metadata>
<g transform="translate(0.000000,127.000000) scale(0.100000,-0.100000)" stroke="none">
<path d="M505 1153 l-60 -65 -5 -111 -5 -112 -111 -3 -110 -3 -69 -69 -69 -70
246 0 247 0 3 250 c2 138 1 249 -2 249 -3 -1 -32 -30 -65 -66z"/>
<path d="M722 973 l3 -248 250 -3 250 -2 -70 70 -69 69 -110 3 -111 3 -5 112
-5 111 -63 66 c-35 36 -66 66 -68 66 -2 0 -3 -111 -2 -247z"/>
<path d="M997 1008 c-32 -35 -44 -55 -37 -62 11 -11 113 81 107 98 -7 21 -24
12 -70 -36z"/>
<path d="M254 1039 c-11 -18 81 -103 102 -95 15 6 10 14 -31 56 -52 53 -60 57
-71 39z"/>
<path d="M607 692 l-37 -38 40 -39 40 -39 40 39 40 39 -37 38 c-20 21 -40 38
-43 38 -3 0 -23 -17 -43 -38z"/>
<path d="M145 520 l69 -69 109 -3 110 -3 -1 -105 0 -105 69 -75 69 -75 0 253
0 252 -247 0 -247 0 69 -70z"/>
<path d="M730 339 l0 -251 66 71 66 71 1 108 2 107 111 3 110 3 69 69 69 70
-247 0 -247 0 0 -251z"/>
<path d="M291 306 c-42 -43 -49 -55 -38 -64 10 -9 24 0 66 42 42 43 49 55 38
64 -10 9 -24 0 -66 -42z"/>
<path d="M956 342 c-2 -4 18 -31 46 -60 36 -38 54 -50 61 -43 8 8 -3 26 -38
61 -49 50 -60 57 -69 42z"/>
</g>
</svg>

