<?xml version="1.0" standalone="no"?>
<!DOCTYPE svg PUBLIC "-//W3C//DTD SVG 20010904//EN"
 "http://www.w3.org/TR/2001/REC-SVG-20010904/DTD/svg10.dtd">
<svg version="1.0" xmlns="http://www.w3.org/2000/svg"
 width="112.000000pt" height="125.000000pt" viewBox="0 0 112.000000 125.000000"
 preserveAspectRatio="xMidYMid meet">
<metadata>
Created by potrace 1.16, written by Peter Selinger 2001-2019
</metadata>
<g transform="translate(0.000000,125.000000) scale(0.100000,-0.100000)" stroke="none">
<path d="M318 1077 l-227 -132 -1 -262 c0 -145 2 -263 5 -263 4 0 19 7 35 15
l30 15 2 231 3 231 193 110 192 111 0 38 c0 22 -1 39 -2 38 -2 0 -105 -60
-230 -132z"/>
<path d="M630 1171 l0 -38 193 -111 192 -111 5 -230 5 -231 33 -20 32 -20 0
268 0 267 -182 105 c-100 58 -204 117 -230 133 l-48 27 0 -39z"/>
<path d="M490 969 c-36 -10 -93 -26 -127 -35 l-63 -16 0 -185 c0 -150 3 -191
16 -219 22 -47 119 -132 198 -174 l65 -35 63 31 c80 40 161 104 193 153 25 37
26 41 26 231 0 106 -2 194 -4 196 -8 9 -260 74 -281 73 -11 -1 -50 -10 -86
-20z m313 -83 l27 -6 0 -153 c0 -125 -4 -159 -19 -192 -23 -52 -80 -102 -163
-145 l-68 -35 -56 29 c-65 34 -149 107 -169 147 -11 21 -15 67 -15 188 l0 160
43 12 c23 6 78 21 122 33 l80 21 95 -26 c52 -14 107 -29 123 -33z"/>
<path d="M510 889 c-36 -11 -82 -25 -103 -31 l-38 -12 3 -145 c3 -133 5 -149
26 -178 25 -35 131 -110 170 -120 35 -8 103 29 170 93 l52 50 0 152 0 151 -72
21 c-76 22 -103 29 -128 35 -8 1 -44 -6 -80 -16z m109 -114 l-33 -46 49 -49
c27 -27 47 -51 44 -53 -2 -1 -39 -29 -82 -61 -43 -32 -80 -56 -82 -54 -3 2 9
24 25 48 17 25 30 49 30 55 0 5 -18 28 -41 51 l-40 41 77 62 c42 34 79 59 82
57 2 -3 -11 -25 -29 -51z"/>
<path d="M151 361 l-25 -19 45 -26 c24 -15 128 -76 232 -135 l187 -109 123 73
c67 40 168 99 225 131 56 33 103 63 105 67 1 5 -10 15 -24 24 -25 15 -30 13
-228 -101 l-202 -116 -198 115 c-109 63 -202 115 -207 115 -5 0 -20 -9 -33
-19z"/>
</g>
</svg>

