<?xml version="1.0" standalone="no"?>
<!DOCTYPE svg PUBLIC "-//W3C//DTD SVG 20010904//EN"
 "http://www.w3.org/TR/2001/REC-SVG-20010904/DTD/svg10.dtd">
<svg version="1.0" xmlns="http://www.w3.org/2000/svg"
 width="123.000000pt" height="125.000000pt" viewBox="0 0 123.000000 125.000000"
 preserveAspectRatio="xMidYMid meet">
<metadata>
Created by potrace 1.16, written by Peter Selinger 2001-2019
</metadata>
<g transform="translate(0.000000,125.000000) scale(0.100000,-0.100000)" stroke="none">
<path d="M430 899 c0 -317 -9 -286 125 -419 l86 -85 99 105 99 105 0 285 0
285 -100 -105 -99 -105 -102 103 c-55 56 -102 102 -104 102 -2 0 -3 -122 -4
-271z"/>
<path d="M130 1097 l0 -67 107 -125 c59 -69 111 -125 115 -125 5 0 8 27 8 60
l0 60 -101 117 c-56 65 -108 125 -115 133 -12 12 -14 4 -14 -53z"/>
<path d="M1026 1028 l-105 -123 -1 -69 c0 -38 2 -67 4 -65 2 2 51 60 110 128
l106 124 0 64 c0 35 -2 63 -4 63 -3 0 -52 -55 -110 -122z"/>
<path d="M130 925 l1 -70 132 -153 132 -154 3 66 3 66 -127 148 c-70 81 -131
151 -136 157 -4 5 -8 -22 -8 -60z"/>
<path d="M1008 833 l-128 -148 0 -69 c0 -39 4 -66 8 -60 5 5 64 73 131 151
l122 143 -3 66 -3 66 -127 -149z"/>
<path d="M130 747 l0 -64 145 -169 c80 -93 150 -170 155 -172 6 -2 10 22 10
56 0 67 18 40 -188 280 -63 73 -115 132 -118 132 -2 0 -4 -29 -4 -63z"/>
<path d="M988 637 l-148 -172 0 -62 c0 -35 3 -63 8 -62 4 0 46 46 93 102 47
56 112 132 143 169 l57 66 -3 66 -3 65 -147 -172z"/>
<path d="M480 380 l0 -102 73 -83 c39 -46 77 -84 83 -84 6 -1 45 37 87 83 l77
84 0 104 0 103 -80 -85 -80 -85 -80 83 -80 83 0 -101z"/>
</g>
</svg>

