<?xml version="1.0" standalone="no"?>
<!DOCTYPE svg PUBLIC "-//W3C//DTD SVG 20010904//EN"
 "http://www.w3.org/TR/2001/REC-SVG-20010904/DTD/svg10.dtd">
<svg version="1.0" xmlns="http://www.w3.org/2000/svg"
 width="128.000000pt" height="128.000000pt" viewBox="0 0 128.000000 128.000000"
 preserveAspectRatio="xMidYMid meet">
<metadata>
Created by potrace 1.16, written by Peter Selinger 2001-2019
</metadata>
<g transform="translate(0.000000,128.000000) scale(0.100000,-0.100000)" stroke="none">
<path d="M360 1092 l0 -142 -142 0 -142 0 49 -50 50 -51 140 3 140 3 -3 145
-4 145 -44 45 -44 45 0 -143z"/>
<path d="M903 1188 l-43 -44 0 -148 0 -148 140 4 140 3 47 48 48 47 -142 0
-142 0 -3 140 -3 141 -42 -43z"/>
<path d="M653 1072 l-103 -3 0 -159 0 -160 -159 0 -158 0 -6 -102 c-3 -57 -3
-106 -1 -110 3 -5 77 -8 165 -8 l159 0 0 -160 0 -160 111 0 110 0 -3 160 -3
160 163 0 162 0 0 110 0 110 -160 0 -160 0 0 159 c0 88 -3 161 -7 163 -5 2
-54 2 -110 0z"/>
<path d="M125 390 l-49 -50 142 0 142 0 0 -142 0 -143 44 45 44 45 4 145 3
145 -140 3 -140 3 -50 -51z"/>
<path d="M860 292 l0 -148 45 -44 45 -44 0 142 0 142 142 0 142 0 -49 50 -49
50 -138 0 -138 0 0 -148z"/>
</g>
</svg>

