<?xml version="1.0" standalone="no"?>
<!DOCTYPE svg PUBLIC "-//W3C//DTD SVG 20010904//EN"
 "http://www.w3.org/TR/2001/REC-SVG-20010904/DTD/svg10.dtd">
<svg version="1.0" xmlns="http://www.w3.org/2000/svg"
 width="122.000000pt" height="122.000000pt" viewBox="0 0 122.000000 122.000000"
 preserveAspectRatio="xMidYMid meet">
<metadata>
Created by potrace 1.16, written by Peter Selinger 2001-2019
</metadata>
<g transform="translate(0.000000,122.000000) scale(0.100000,-0.100000)" stroke="none">
<path d="M403 962 l-203 -207 0 -125 0 -126 70 -69 70 -70 270 270 270 270
-132 132 c-73 73 -135 133 -138 133 -3 0 -96 -94 -207 -208z m203 -64 l85 -83
-175 -175 -175 -174 -26 24 c-24 22 -25 28 -25 138 l0 115 113 118 c61 64 113
118 115 118 2 1 41 -36 88 -81z"/>
<path d="M437 852 c-16 -17 -13 -21 46 -80 61 -60 64 -62 80 -44 16 17 13 21
-46 80 -61 60 -64 62 -80 44z"/>
<path d="M637 612 l-267 -267 128 -127 c70 -71 131 -131 135 -135 4 -4 102 87
217 202 l210 210 0 115 0 115 -78 78 -77 77 -268 -268z m305 131 c27 -26 28
-30 28 -133 l0 -105 -130 -130 -130 -130 -80 80 c-44 44 -80 84 -80 90 0 13
342 355 354 355 6 0 23 -12 38 -27z"/>
<path d="M706 535 c-19 -15 -19 -15 4 -40 l23 -25 -21 -23 c-20 -22 -21 -24
-5 -40 16 -16 18 -15 40 5 22 20 24 20 42 4 16 -15 22 -15 40 -4 26 16 26 20
1 43 l-20 18 20 22 c20 22 20 22 0 40 -19 17 -20 17 -38 -4 l-17 -23 -19 21
c-22 25 -25 25 -50 6z"/>
<path d="M127 686 c-26 -25 -47 -48 -47 -53 0 -5 23 -31 50 -58 l50 -49 0 102
c0 56 -1 102 -3 102 -1 0 -23 -20 -50 -44z"/>
<path d="M1080 610 l0 -95 47 48 48 47 -48 47 -47 48 0 -95z"/>
</g>
</svg>

