<?xml version="1.0" standalone="no"?>
<!DOCTYPE svg PUBLIC "-//W3C//DTD SVG 20010904//EN"
 "http://www.w3.org/TR/2001/REC-SVG-20010904/DTD/svg10.dtd">
<svg version="1.0" xmlns="http://www.w3.org/2000/svg"
 width="122.000000pt" height="128.000000pt" viewBox="0 0 122.000000 128.000000"
 preserveAspectRatio="xMidYMid meet">
<metadata>
Created by potrace 1.16, written by Peter Selinger 2001-2019
</metadata>
<g transform="translate(0.000000,128.000000) scale(0.100000,-0.100000)" stroke="none">
<path d="M253 1153 l-103 -56 0 -124 c0 -112 2 -124 20 -135 16 -10 20 -24 20
-63 l0 -50 65 -35 c67 -36 74 -44 53 -54 -7 -3 -35 -19 -63 -35 l-50 -29 -3
-70 -3 -71 86 -73 c47 -40 90 -74 96 -76 5 -2 9 102 9 265 l0 269 -85 73 c-47
41 -85 75 -85 76 0 1 36 26 80 55 l80 53 0 68 c0 38 -3 69 -7 68 -5 0 -54 -25
-110 -56z"/>
<path d="M900 1142 l0 -69 81 -53 82 -54 -34 -30 c-19 -17 -58 -52 -87 -78
l-52 -46 0 -266 c0 -146 3 -266 6 -266 3 0 46 33 94 72 l89 73 0 70 1 70 -70
39 c-39 22 -70 42 -70 45 0 3 32 23 70 44 l70 37 0 50 c0 40 4 50 20 55 19 6
20 15 20 134 l0 128 -103 56 c-57 32 -107 57 -110 57 -4 0 -7 -31 -7 -68z"/>
<path d="M442 1065 c-79 -51 -147 -97 -150 -100 -4 -4 24 -35 62 -69 l68 -62
-1 -295 -2 -294 85 -78 c46 -42 86 -77 88 -77 2 0 3 241 4 535 1 294 -2 535
-5 535 -3 -1 -71 -43 -149 -95z"/>
<path d="M680 625 l0 -537 85 78 85 77 0 297 0 297 70 61 70 61 -127 84 c-71
46 -140 91 -155 101 l-28 18 0 -537z"/>
<path d="M100 651 c0 -56 2 -101 5 -101 9 0 165 95 165 100 0 3 -12 12 -28 20
-15 9 -53 31 -84 49 l-58 32 0 -100z"/>
<path d="M1073 702 c-46 -26 -83 -50 -83 -53 0 -9 162 -101 167 -95 2 2 2 46
1 99 l-3 96 -82 -47z"/>
</g>
</svg>

