<?xml version="1.0" standalone="no"?>
<!DOCTYPE svg PUBLIC "-//W3C//DTD SVG 20010904//EN"
 "http://www.w3.org/TR/2001/REC-SVG-20010904/DTD/svg10.dtd">
<svg version="1.0" xmlns="http://www.w3.org/2000/svg"
 width="118.000000pt" height="113.000000pt" viewBox="0 0 118.000000 113.000000"
 preserveAspectRatio="xMidYMid meet">
<metadata>
Created by potrace 1.16, written by Peter Selinger 2001-2019
</metadata>
<g transform="translate(0.000000,113.000000) scale(0.100000,-0.100000)" stroke="none">
<path d="M190 1065 c0 -2 52 -83 116 -180 63 -98 114 -178 112 -179 -2 -2 -43
-11 -92 -21 -90 -18 -94 -27 -21 -39 22 -4 57 -12 77 -18 l37 -11 -23 -36
c-13 -20 -64 -100 -115 -179 -50 -79 -85 -140 -78 -136 6 4 85 54 174 111 90
57 166 103 171 103 4 0 17 -41 27 -92 l20 -92 18 84 c10 47 20 91 23 98 2 8
26 -2 71 -32 105 -68 267 -171 281 -180 19 -11 14 -3 -112 189 -69 105 -101
162 -93 166 7 4 44 12 82 19 39 8 74 16 78 20 4 4 -33 15 -83 26 l-90 19 115
179 c63 98 115 181 115 184 0 3 -8 -2 -18 -10 -27 -23 -343 -221 -346 -217 -1
2 -11 44 -21 93 -20 98 -23 96 -45 -22 -10 -55 -17 -72 -28 -67 -7 3 -90 54
-183 115 -93 60 -169 108 -169 105z"/>
<path d="M90 980 c0 -5 35 -71 78 -145 62 -108 81 -135 99 -135 12 0 25 4 28
10 3 5 -21 56 -54 112 l-61 103 30 3 c35 4 35 5 14 37 -14 22 -24 25 -75 25
-33 0 -59 -4 -59 -10z"/>
<path d="M380 983 c0 -18 81 -53 120 -53 33 0 42 4 49 23 5 12 7 25 4 30 -2 4
-42 7 -89 7 -46 0 -84 -3 -84 -7z"/>
<path d="M639 985 c-4 -3 -4 -17 -1 -30 4 -22 9 -25 49 -25 39 0 123 34 123
51 0 7 -164 12 -171 4z"/>
<path d="M968 965 c-25 -33 -23 -35 21 -35 l40 0 -65 -112 -64 -113 27 -7 c15
-4 29 -6 31 -4 2 3 39 66 83 142 60 103 77 139 67 146 -7 4 -38 8 -68 8 -46
-1 -58 -4 -72 -25z"/>
<path d="M312 586 c13 -20 25 -36 28 -36 11 0 31 43 23 50 -4 4 -23 11 -41 15
l-33 7 23 -36z"/>
<path d="M863 613 c-29 -6 -37 -31 -17 -61 l17 -25 23 39 c34 56 33 58 -23 47z"/>
<path d="M453 394 c-21 -15 -21 -16 60 -156 45 -78 87 -141 92 -140 6 0 45 62
89 137 75 129 78 137 60 150 -11 8 -22 15 -25 15 -4 0 -32 -45 -64 -100 -31
-55 -58 -100 -60 -100 -3 0 -32 47 -66 105 -34 58 -62 105 -63 104 0 0 -11 -7
-23 -15z"/>
</g>
</svg>

