<?xml version="1.0" standalone="no"?>
<!DOCTYPE svg PUBLIC "-//W3C//DTD SVG 20010904//EN"
 "http://www.w3.org/TR/2001/REC-SVG-20010904/DTD/svg10.dtd">
<svg version="1.0" xmlns="http://www.w3.org/2000/svg"
 width="116.000000pt" height="128.000000pt" viewBox="0 0 116.000000 128.000000"
 preserveAspectRatio="xMidYMid meet">
<metadata>
Created by potrace 1.16, written by Peter Selinger 2001-2019
</metadata>
<g transform="translate(0.000000,128.000000) scale(0.100000,-0.100000)" stroke="none">
<path d="M455 1153 c-72 -41 -183 -106 -247 -144 l-118 -70 0 -289 0 -289 143
-84 c240 -142 355 -207 366 -207 10 0 120 62 386 217 l120 70 0 294 0 293 -80
46 c-44 26 -155 90 -247 143 -92 53 -173 97 -180 97 -7 -1 -71 -35 -143 -77z
m377 -119 l218 -127 0 -257 0 -257 -218 -127 c-120 -69 -224 -126 -231 -126
-6 0 -111 57 -231 126 l-220 126 0 258 0 257 218 126 c119 70 223 127 231 127
8 0 113 -57 233 -126z"/>
<path d="M668 963 l-48 -49 0 -117 0 -117 123 0 123 0 44 45 44 45 -117 0
-116 0 -3 120 -3 121 -47 -48z"/>
<path d="M480 885 l0 -115 -117 0 -117 0 44 -45 44 -45 123 0 123 0 0 117 0
117 -42 43 c-23 24 -46 43 -50 43 -4 0 -8 -52 -8 -115z"/>
<path d="M292 587 c-23 -23 -42 -46 -42 -50 0 -4 52 -7 115 -7 l115 0 0 -117
0 -117 50 49 50 49 0 118 0 118 -123 0 -123 0 -42 -43z"/>
<path d="M627 623 c-4 -3 -7 -56 -7 -118 l0 -111 50 -49 50 -49 0 117 0 117
115 0 c63 0 115 3 115 7 0 4 -19 27 -42 50 l-42 43 -116 0 c-64 0 -120 -3
-123 -7z"/>
</g>
</svg>

