<?xml version="1.0" standalone="no"?>
<!DOCTYPE svg PUBLIC "-//W3C//DTD SVG 20010904//EN"
 "http://www.w3.org/TR/2001/REC-SVG-20010904/DTD/svg10.dtd">
<svg version="1.0" xmlns="http://www.w3.org/2000/svg"
 width="113.000000pt" height="124.000000pt" viewBox="0 0 113.000000 124.000000"
 preserveAspectRatio="xMidYMid meet">
<metadata>
Created by potrace 1.16, written by Peter Selinger 2001-2019
</metadata>
<g transform="translate(0.000000,124.000000) scale(0.100000,-0.100000)" stroke="none">
<path d="M435 1110 c-82 -48 -151 -94 -153 -102 -1 -7 3 -22 11 -32 13 -17 19
-15 113 40 54 32 119 69 144 82 l45 25 140 -81 c112 -64 142 -77 148 -66 21
38 3 56 -143 140 -80 46 -147 83 -150 83 -3 -1 -72 -41 -155 -89z"/>
<path d="M915 918 c-15 -46 -32 -88 -39 -94 -6 -7 -41 -22 -78 -34 -62 -20
-68 -24 -68 -49 0 -46 29 -64 93 -56 53 7 57 10 162 115 l107 107 -54 33 c-29
18 -63 39 -75 47 -20 14 -22 12 -48 -69z"/>
<path d="M165 954 c-33 -20 -62 -38 -64 -40 -2 -2 18 -23 45 -46 27 -24 78
-71 114 -105 l65 -62 122 -21 c89 -15 149 -32 219 -62 85 -37 100 -47 124 -85
l28 -44 -37 -62 c-21 -34 -53 -89 -71 -122 l-34 -60 91 78 c51 43 103 93 117
111 l25 33 -41 77 -40 78 -117 55 c-64 30 -177 77 -251 102 l-135 47 -45 82
c-24 45 -47 82 -50 82 -3 -1 -32 -17 -65 -36z"/>
<path d="M553 923 c-38 -4 -43 -7 -43 -29 l0 -25 93 3 c91 3 92 3 92 28 0 23
-4 25 -50 26 -27 1 -69 -1 -92 -3z"/>
<path d="M512 825 c2 -22 16 -32 86 -62 46 -19 84 -34 86 -32 2 2 6 30 9 62
l6 57 -95 0 -95 0 3 -25z"/>
<path d="M90 585 l0 -254 93 -55 c50 -29 163 -95 251 -145 l158 -91 254 146
254 146 0 255 0 255 -34 -29 -34 -28 -4 -209 -3 -209 -170 -99 c-93 -55 -191
-111 -217 -125 l-47 -26 -153 88 c-84 49 -181 105 -215 124 l-63 36 0 213 0
213 -27 24 c-16 13 -31 25 -35 25 -5 0 -8 -115 -8 -255z"/>
<path d="M410 630 c-26 -14 -45 -37 -73 -94 l-39 -76 31 -38 c16 -21 65 -70
108 -108 l77 -69 -62 117 -63 118 20 38 c11 21 27 44 35 51 16 13 23 81 9 81
-5 -1 -24 -9 -43 -20z"/>
<path d="M506 632 c-4 -3 -6 -25 -6 -49 l0 -43 73 0 c79 0 117 7 117 22 0 19
-171 84 -184 70z"/>
<path d="M512 468 c12 -66 45 -153 63 -168 19 -16 39 0 65 50 15 30 50 144 50
164 0 3 -42 6 -94 6 l-93 0 9 -52z"/>
</g>
</svg>

