<?xml version="1.0" standalone="no"?>
<!DOCTYPE svg PUBLIC "-//W3C//DTD SVG 20010904//EN"
 "http://www.w3.org/TR/2001/REC-SVG-20010904/DTD/svg10.dtd">
<svg version="1.0" xmlns="http://www.w3.org/2000/svg"
 width="94.000000pt" height="124.000000pt" viewBox="0 0 94.000000 124.000000"
 preserveAspectRatio="xMidYMid meet">
<metadata>
Created by potrace 1.16, written by Peter Selinger 2001-2019
</metadata>
<g transform="translate(0.000000,124.000000) scale(0.100000,-0.100000)" stroke="none">
<path d="M93 1138 l2 -63 35 0 35 0 5 -127 5 -127 75 -55 c41 -31 78 -56 82
-56 5 0 8 11 8 25 0 19 -15 37 -60 72 l-60 46 0 109 0 108 270 0 270 0 0 -115
0 -115 -65 -48 c-53 -38 -65 -52 -65 -74 0 -16 3 -28 6 -28 3 0 44 28 90 61
l84 61 0 129 0 129 35 0 35 0 0 65 0 65 -395 0 -395 0 3 -62z"/>
<path d="M475 974 c-23 -23 -40 -60 -64 -138 -31 -101 -36 -96 79 -96 l100 0
-6 28 c-24 107 -38 152 -60 185 -28 43 -27 42 -49 21z"/>
<path d="M95 650 c0 -60 1 -110 3 -110 2 0 30 23 63 52 l60 52 -58 58 c-31 32
-60 58 -63 58 -3 0 -5 -49 -5 -110z"/>
<path d="M845 706 l-60 -55 57 -57 c32 -32 60 -55 63 -52 3 3 4 53 3 112 l-3
106 -60 -54z"/>
<path d="M386 603 c-3 -59 -2 -111 2 -115 4 -4 49 -5 99 -2 l91 7 6 30 c3 16
6 65 6 108 l0 79 -98 0 -99 0 -7 -107z"/>
<path d="M630 562 c0 -22 12 -36 65 -75 l66 -47 -3 -117 -3 -117 -70 3 -70 2
-67 66 -67 67 -68 -67 -68 -67 -62 0 -63 0 0 108 0 109 60 46 c46 36 60 53 60
73 0 33 -6 30 -98 -37 l-72 -54 0 -122 0 -122 -37 -3 -37 -3 -1 -62 -1 -63
393 0 393 0 0 65 0 65 -35 0 -35 0 0 129 0 130 -82 60 c-46 33 -86 61 -90 61
-5 0 -8 -12 -8 -28z"/>
<path d="M380 430 l0 -30 78 0 c102 0 122 6 122 36 0 24 -1 24 -100 24 l-100
0 0 -30z"/>
</g>
</svg>

