<?xml version="1.0" standalone="no"?>
<!DOCTYPE svg PUBLIC "-//W3C//DTD SVG 20010904//EN"
 "http://www.w3.org/TR/2001/REC-SVG-20010904/DTD/svg10.dtd">
<svg version="1.0" xmlns="http://www.w3.org/2000/svg"
 width="116.000000pt" height="128.000000pt" viewBox="0 0 116.000000 128.000000"
 preserveAspectRatio="xMidYMid meet">
<metadata>
Created by potrace 1.16, written by Peter Selinger 2001-2019
</metadata>
<g transform="translate(0.000000,128.000000) scale(0.100000,-0.100000)" stroke="none">
<path d="M340 1087 l-245 -142 0 -294 0 -294 240 -139 c132 -76 246 -141 253
-145 7 -3 126 60 265 140 l252 145 3 289 c2 225 -1 293 -10 300 -31 25 -489
283 -500 282 -7 0 -123 -64 -258 -142z m298 59 c20 -13 87 -52 147 -87 61 -34
145 -82 188 -106 l77 -44 0 -258 0 -257 -217 -125 c-120 -68 -225 -124 -234
-124 -10 0 -114 56 -233 125 l-216 125 0 256 0 256 188 108 c103 59 203 118
222 131 19 12 36 23 38 23 1 1 19 -10 40 -23z"/>
<path d="M515 1001 c-101 -26 -196 -108 -242 -206 -24 -51 -28 -72 -28 -145 1
-70 5 -95 27 -142 35 -76 95 -138 170 -179 58 -30 71 -33 153 -33 78 -1 98 3
150 27 78 36 146 104 182 181 24 52 28 74 28 146 0 72 -4 94 -28 146 -57 123
-178 205 -311 210 -39 2 -84 0 -101 -5z m200 -100 c96 -43 159 -143 158 -251
0 -79 -18 -124 -75 -186 -57 -61 -114 -87 -198 -87 -79 0 -125 18 -184 73 -63
58 -89 116 -89 199 0 100 37 169 127 234 67 48 177 56 261 18z"/>
<path d="M560 811 c-14 -28 -13 -184 2 -199 16 -16 200 -16 216 0 37 37 -7 78
-85 78 l-53 0 0 58 c0 32 -5 63 -12 70 -18 18 -56 14 -68 -7z"/>
</g>
</svg>

