<?xml version="1.0" standalone="no"?>
<!DOCTYPE svg PUBLIC "-//W3C//DTD SVG 20010904//EN"
 "http://www.w3.org/TR/2001/REC-SVG-20010904/DTD/svg10.dtd">
<svg version="1.0" xmlns="http://www.w3.org/2000/svg"
 width="112.000000pt" height="124.000000pt" viewBox="0 0 112.000000 124.000000"
 preserveAspectRatio="xMidYMid meet">
<metadata>
Created by potrace 1.16, written by Peter Selinger 2001-2019
</metadata>
<g transform="translate(0.000000,124.000000) scale(0.100000,-0.100000)" stroke="none">
<path d="M435 1111 c-82 -49 -151 -93 -153 -100 -5 -14 16 -41 32 -41 6 0 69
34 140 75 71 41 132 75 137 75 4 0 62 -32 128 -70 153 -89 146 -87 159 -52
l10 30 -149 86 c-81 47 -150 86 -151 85 -2 0 -70 -40 -153 -88z"/>
<path d="M845 826 l-78 -175 18 -90 17 -90 -77 -96 c-42 -53 -76 -97 -74 -99
2 -2 55 27 117 63 l113 66 -5 50 c-3 28 -8 82 -11 120 l-6 70 96 139 c52 76
95 140 95 142 0 3 -118 74 -124 74 -2 0 -39 -78 -81 -174z"/>
<path d="M173 954 c-35 -19 -63 -37 -63 -40 0 -3 46 -60 101 -127 56 -67 107
-129 114 -137 10 -12 10 -38 -1 -125 -11 -87 -11 -112 -1 -121 13 -13 206
-134 212 -134 3 0 -30 46 -72 101 l-75 102 16 74 c9 40 16 83 16 94 0 21 -169
349 -179 349 -3 0 -34 -16 -68 -36z"/>
<path d="M599 953 c-75 -3 -88 -6 -92 -23 -3 -10 -2 -21 1 -24 3 -3 45 -6 94
-6 l88 0 0 30 c0 17 -1 29 -2 28 -2 -1 -42 -4 -89 -5z"/>
<path d="M1048 849 l-28 -39 0 -218 0 -217 -98 -56 c-53 -30 -150 -86 -215
-124 -94 -54 -122 -66 -135 -58 -10 5 -106 61 -215 123 l-197 113 0 206 -1
206 -29 33 c-16 17 -32 32 -35 32 -3 0 -5 -115 -5 -255 l0 -255 42 -26 c24
-14 136 -79 249 -144 l207 -119 248 143 249 143 3 276 c1 153 -1 277 -5 277
-5 -1 -20 -19 -35 -41z"/>
<path d="M507 873 c-4 -3 -7 -74 -7 -156 l0 -150 46 7 c26 3 69 6 95 6 l49 0
0 150 0 150 -88 0 c-49 0 -92 -3 -95 -7z"/>
<path d="M587 552 l-88 -3 6 -32 c20 -102 61 -197 84 -197 26 0 115 224 93
232 -4 2 -47 2 -95 0z"/>
</g>
</svg>

