<?xml version="1.0" standalone="no"?>
<!DOCTYPE svg PUBLIC "-//W3C//DTD SVG 20010904//EN"
 "http://www.w3.org/TR/2001/REC-SVG-20010904/DTD/svg10.dtd">
<svg version="1.0" xmlns="http://www.w3.org/2000/svg"
 width="117.000000pt" height="128.000000pt" viewBox="0 0 117.000000 128.000000"
 preserveAspectRatio="xMidYMid meet">
<metadata>
Created by potrace 1.16, written by Peter Selinger 2001-2019
</metadata>
<g transform="translate(0.000000,128.000000) scale(0.100000,-0.100000)" stroke="none">
<path d="M352 1086 l-262 -150 2 -300 3 -299 259 -148 c231 -132 262 -147 281
-136 11 7 130 74 263 151 l242 139 0 296 0 296 -263 151 -263 150 -262 -150z
m497 -56 l220 -125 1 -265 0 -266 -217 -124 c-119 -69 -221 -128 -228 -132 -6
-4 -114 53 -240 125 l-230 132 0 263 0 263 225 130 c124 71 230 128 237 127 6
-2 111 -59 232 -128z"/>
<path d="M510 965 l0 -35 89 0 89 0 4 30 c3 17 2 32 0 35 -3 3 -45 5 -94 5
l-88 0 0 -35z"/>
<path d="M530 897 c-96 -27 -176 -101 -206 -189 -23 -69 -16 -168 16 -232 89
-175 335 -212 475 -70 59 60 80 115 80 209 0 70 -4 87 -30 133 -34 63 -71 97
-140 128 -64 29 -138 37 -195 21z m188 -63 c195 -97 181 -374 -23 -460 -56
-23 -143 -18 -203 12 -115 57 -167 181 -130 308 15 51 99 137 148 153 66 21
151 16 208 -13z"/>
<path d="M522 815 c-85 -37 -128 -94 -139 -184 -7 -62 10 -113 56 -164 137
-152 383 -61 385 143 1 154 -163 265 -302 205z m112 -190 l6 -40 -85 -58 c-47
-32 -85 -55 -85 -52 0 3 22 36 49 73 41 59 50 80 60 143 7 41 15 81 18 89 6
14 23 -59 37 -155z"/>
</g>
</svg>

