<?xml version="1.0" standalone="no"?>
<!DOCTYPE svg PUBLIC "-//W3C//DTD SVG 20010904//EN"
 "http://www.w3.org/TR/2001/REC-SVG-20010904/DTD/svg10.dtd">
<svg version="1.0" xmlns="http://www.w3.org/2000/svg"
 width="116.000000pt" height="128.000000pt" viewBox="0 0 116.000000 128.000000"
 preserveAspectRatio="xMidYMid meet">
<metadata>
Created by potrace 1.16, written by Peter Selinger 2001-2019
</metadata>
<g transform="translate(0.000000,128.000000) scale(0.100000,-0.100000)" stroke="none">
<path d="M565 1201 c-16 -10 -115 -67 -218 -126 l-188 -108 31 -19 32 -19 174
102 c96 55 183 103 193 106 11 3 91 -37 204 -102 l186 -106 31 16 c30 16 31
17 14 29 -18 13 -425 246 -428 246 0 0 -14 -9 -31 -19z"/>
<path d="M420 881 l-135 -78 -3 -166 -2 -165 97 -55 c54 -30 119 -67 146 -82
l47 -27 0 326 c0 179 -4 326 -8 326 -4 0 -68 -35 -142 -79z"/>
<path d="M620 635 c0 -179 2 -325 5 -325 2 0 33 17 67 38 35 21 98 58 141 82
l77 44 -2 165 -3 165 -135 78 c-74 43 -138 78 -142 78 -5 0 -8 -146 -8 -325z"/>
<path d="M90 612 l0 -267 157 -90 c86 -50 188 -107 226 -128 l68 -38 -3 37
c-3 38 -3 38 -179 139 -97 55 -184 106 -193 114 -15 12 -17 39 -16 239 l1 224
-30 19 -31 19 0 -268z"/>
<path d="M1068 853 l-28 -17 -2 -229 -3 -229 -192 -111 c-190 -109 -193 -111
-193 -144 0 -18 3 -33 8 -33 4 1 106 58 227 128 l220 128 3 262 c1 144 -1 262
-5 262 -5 0 -20 -8 -35 -17z"/>
</g>
</svg>

