<?xml version="1.0" standalone="no"?>
<!DOCTYPE svg PUBLIC "-//W3C//DTD SVG 20010904//EN"
 "http://www.w3.org/TR/2001/REC-SVG-20010904/DTD/svg10.dtd">
<svg version="1.0" xmlns="http://www.w3.org/2000/svg"
 width="112.000000pt" height="125.000000pt" viewBox="0 0 112.000000 125.000000"
 preserveAspectRatio="xMidYMid meet">
<metadata>
Created by potrace 1.16, written by Peter Selinger 2001-2019
</metadata>
<g transform="translate(0.000000,125.000000) scale(0.100000,-0.100000)" stroke="none">
<path d="M868 1003 l-168 -168 0 -191 0 -192 170 -162 170 -162 0 218 0 219
-47 -48 -48 -47 -87 87 -88 88 135 135 136 136 -3 127 -3 127 -167 -167z"/>
<path d="M144 1138 c3 -13 6 -108 6 -213 l0 -189 45 44 45 45 91 -91 90 -90
-135 -132 -134 -131 -4 -126 c-2 -69 -1 -125 2 -125 3 0 81 75 173 168 l167
167 0 180 0 180 -168 168 c-92 92 -171 167 -176 167 -4 0 -6 -10 -2 -22z"/>
<path d="M540 667 l0 -484 50 -42 50 -42 0 484 0 484 -45 42 c-24 22 -47 41
-50 41 -3 0 -5 -218 -5 -483z"/>
<path d="M198 681 l-33 -30 37 -38 38 -37 35 34 35 34 -32 33 c-18 18 -35 33
-40 33 -4 0 -22 -13 -40 -29z"/>
<path d="M905 680 l-29 -30 37 -37 37 -37 35 34 35 34 -32 33 c-18 18 -37 33
-43 33 -6 0 -24 -14 -40 -30z"/>
</g>
</svg>

