<?xml version="1.0" standalone="no"?>
<!DOCTYPE svg PUBLIC "-//W3C//DTD SVG 20010904//EN"
 "http://www.w3.org/TR/2001/REC-SVG-20010904/DTD/svg10.dtd">
<svg version="1.0" xmlns="http://www.w3.org/2000/svg"
 width="108.000000pt" height="126.000000pt" viewBox="0 0 108.000000 126.000000"
 preserveAspectRatio="xMidYMid meet">
<metadata>
Created by potrace 1.16, written by Peter Selinger 2001-2019
</metadata>
<g transform="translate(0.000000,126.000000) scale(0.100000,-0.100000)" stroke="none">
<path d="M448 1093 l-78 -78 0 -330 0 -330 80 -80 80 -80 0 181 0 180 -45 44
-45 44 45 46 45 46 -2 217 -3 217 -77 -77z"/>
<path d="M610 945 l0 -229 37 -38 37 -38 -37 -38 -37 -38 0 -184 0 -185 80 80
80 80 0 330 0 330 -80 80 -80 80 0 -230z"/>
<path d="M228 983 l-78 -78 0 -239 0 -238 76 -74 c42 -41 78 -73 81 -71 2 2 2
178 1 391 l-3 386 -77 -77z"/>
<path d="M830 672 c0 -215 4 -392 8 -392 5 0 43 35 85 79 l77 79 0 229 0 228
-85 85 -85 85 0 -393z"/>
<path d="M522 677 l-32 -33 38 -37 38 -37 34 35 34 35 -34 35 c-19 19 -37 35
-40 35 -3 0 -20 -15 -38 -33z"/>
<path d="M370 290 c0 -18 23 -48 80 -105 71 -70 80 -77 80 -55 0 18 -23 48
-80 105 -71 70 -80 77 -80 55z"/>
<path d="M687 232 c-58 -59 -78 -85 -75 -101 3 -19 14 -11 81 57 58 59 78 85
75 101 -3 19 -14 11 -81 -57z"/>
</g>
</svg>

