<?xml version="1.0" standalone="no"?>
<!DOCTYPE svg PUBLIC "-//W3C//DTD SVG 20010904//EN"
 "http://www.w3.org/TR/2001/REC-SVG-20010904/DTD/svg10.dtd">
<svg version="1.0" xmlns="http://www.w3.org/2000/svg"
 width="126.000000pt" height="127.000000pt" viewBox="0 0 126.000000 127.000000"
 preserveAspectRatio="xMidYMid meet">
<metadata>
Created by potrace 1.16, written by Peter Selinger 2001-2019
</metadata>
<g transform="translate(0.000000,127.000000) scale(0.100000,-0.100000)" stroke="none">
<path d="M570 1132 c-63 -27 -124 -52 -135 -57 -17 -7 -13 -10 20 -14 40 -6
39 -7 -140 -96 l-180 -90 99 -3 99 -3 -35 -37 c-19 -20 -54 -68 -78 -107 -24
-38 -59 -94 -77 -122 -19 -29 -31 -53 -27 -53 4 0 109 101 233 224 209 208
234 229 336 289 75 43 134 69 183 82 40 9 72 19 70 20 -2 1 -59 5 -128 9
l-125 6 -115 -48z"/>
<path d="M967 1089 c-83 -8 -95 -12 -184 -65 l-96 -56 141 -141 c127 -127 143
-140 154 -124 7 10 34 55 60 100 45 79 46 85 53 190 l7 107 -24 -1 c-12 -1
-63 -6 -111 -10z"/>
<path d="M1153 905 c-7 -22 -15 -53 -19 -70 -3 -16 -34 -79 -67 -140 -58 -106
-69 -119 -296 -348 -129 -130 -232 -237 -228 -237 16 0 254 155 290 189 l37
35 1 -104 0 -105 94 185 c86 169 94 182 94 146 1 -24 5 -36 10 -30 5 5 32 67
60 137 l52 128 -9 127 c-7 119 -9 124 -19 87z"/>
<path d="M510 775 l-155 -155 133 -132 132 -133 155 155 155 155 -133 133
-132 132 -155 -155z"/>
<path d="M282 547 l-42 -43 133 -132 133 -132 42 43 42 43 -133 132 -133 132
-42 -43z"/>
</g>
</svg>

