<?xml version="1.0" standalone="no"?>
<!DOCTYPE svg PUBLIC "-//W3C//DTD SVG 20010904//EN"
 "http://www.w3.org/TR/2001/REC-SVG-20010904/DTD/svg10.dtd">
<svg version="1.0" xmlns="http://www.w3.org/2000/svg"
 width="116.000000pt" height="128.000000pt" viewBox="0 0 116.000000 128.000000"
 preserveAspectRatio="xMidYMid meet">
<metadata>
Created by potrace 1.16, written by Peter Selinger 2001-2019
</metadata>
<g transform="translate(0.000000,128.000000) scale(0.100000,-0.100000)" stroke="none">
<path d="M340 1087 l-245 -143 0 -294 0 -294 94 -54 c89 -51 95 -53 108 -36 7
10 13 21 13 26 0 4 -36 29 -80 54 l-80 47 0 257 0 257 226 131 225 130 92 -54
91 -54 14 26 c7 14 12 27 10 28 -24 19 -200 116 -210 115 -7 0 -123 -64 -258
-142z"/>
<path d="M902 1025 c-11 -24 -9 -27 68 -71 l80 -47 0 -256 0 -257 -218 -127
c-120 -70 -224 -127 -231 -127 -6 0 -47 20 -90 45 -43 25 -82 45 -87 45 -9 0
-38 -40 -32 -44 22 -18 200 -116 209 -116 6 0 46 20 88 45 42 24 153 89 246
143 l170 99 0 293 0 294 -90 53 c-49 29 -93 53 -96 53 -3 0 -11 -11 -17 -25z"/>
<path d="M533 973 c-51 -2 -93 -7 -93 -11 0 -3 24 -30 52 -59 l52 -53 -87 -88
c-48 -48 -87 -92 -87 -97 0 -6 34 -44 75 -85 41 -41 75 -79 75 -84 0 -6 -28
-39 -62 -73 l-62 -63 44 -45 c29 -30 47 -42 54 -35 7 7 -2 22 -24 45 l-34 35
69 70 70 70 -83 83 -82 82 90 90 91 90 -51 45 c-28 25 -50 48 -50 53 0 4 45 7
99 7 55 0 106 3 115 6 32 12 15 24 -31 22 -27 -1 -90 -4 -140 -5z"/>
<path d="M643 931 c-45 -4 -84 -9 -87 -12 -3 -3 12 -23 34 -44 l40 -39 -87
-88 -88 -88 80 -80 79 -80 -55 -57 c-90 -94 -88 -88 -44 -133 22 -22 44 -40
49 -40 6 0 61 51 123 112 l113 113 -82 82 -83 83 43 42 42 42 39 -38 38 -38 6
64 c4 35 9 96 13 136 l6 72 -48 -2 c-27 0 -86 -4 -131 -7z"/>
</g>
</svg>

