<?xml version="1.0" standalone="no"?>
<!DOCTYPE svg PUBLIC "-//W3C//DTD SVG 20010904//EN"
 "http://www.w3.org/TR/2001/REC-SVG-20010904/DTD/svg10.dtd">
<svg version="1.0" xmlns="http://www.w3.org/2000/svg"
 width="113.000000pt" height="126.000000pt" viewBox="0 0 113.000000 126.000000"
 preserveAspectRatio="xMidYMid meet">
<metadata>
Created by potrace 1.16, written by Peter Selinger 2001-2019
</metadata>
<g transform="translate(0.000000,126.000000) scale(0.100000,-0.100000)" stroke="none">
<path d="M409 1110 c-101 -58 -214 -123 -252 -145 l-67 -39 2 -291 3 -290 249
-142 249 -143 41 23 c23 13 135 78 251 145 l210 121 3 288 2 288 -253 146
-253 146 -185 -107z m337 -56 c82 -48 179 -104 217 -126 l67 -40 -2 -252 -3
-251 -210 -122 c-116 -68 -217 -121 -227 -119 -9 2 -109 57 -222 122 l-206
119 0 252 c0 230 2 254 18 263 88 54 408 238 413 239 3 1 73 -38 155 -85z"/>
<path d="M580 935 c-30 -80 -93 -225 -97 -225 -3 0 -42 22 -87 50 -125 75
-121 78 -76 -55 22 -65 37 -121 35 -126 -3 -4 -28 -15 -55 -24 -28 -9 -50 -18
-50 -21 0 -2 69 -38 153 -79 l152 -76 -65 60 c-36 33 -68 60 -72 61 -18 0 -6
20 11 20 47 0 50 8 19 67 -16 31 -27 57 -26 58 2 2 29 -17 61 -41 31 -24 57
-43 58 -41 0 1 11 43 23 92 l23 90 27 -87 c16 -49 31 -88 35 -88 3 0 28 16 55
35 27 19 51 33 53 31 3 -2 -7 -26 -21 -54 -27 -53 -26 -62 11 -62 12 0 23 -4
23 -10 0 -5 -31 -35 -69 -67 -38 -32 -68 -59 -67 -61 2 -1 72 32 157 74 l154
76 -50 20 c-27 11 -54 23 -58 28 -5 4 7 58 28 120 20 62 34 114 31 117 -2 3
-46 -21 -97 -52 -50 -31 -95 -53 -99 -48 -5 4 -29 61 -55 126 -26 64 -49 117
-51 117 -3 0 -9 -11 -14 -25z"/>
</g>
</svg>

