<?xml version="1.0" standalone="no"?>
<!DOCTYPE svg PUBLIC "-//W3C//DTD SVG 20010904//EN"
 "http://www.w3.org/TR/2001/REC-SVG-20010904/DTD/svg10.dtd">
<svg version="1.0" xmlns="http://www.w3.org/2000/svg"
 width="126.000000pt" height="89.000000pt" viewBox="0 0 126.000000 89.000000"
 preserveAspectRatio="xMidYMid meet">
<metadata>
Created by potrace 1.16, written by Peter Selinger 2001-2019
</metadata>
<g transform="translate(0.000000,89.000000) scale(0.100000,-0.100000)" stroke="none">
<path d="M644 812 c-27 -21 -44 -54 -44 -82 0 -33 53 -80 90 -80 43 0 90 47
90 90 0 68 -86 113 -136 72z m76 -46 c6 -8 10 -25 8 -38 -6 -42 -78 -32 -78
11 0 37 46 55 70 27z"/>
<path d="M90 745 l0 -45 165 0 c125 0 165 -3 165 -12 0 -7 -12 -33 -26 -58
-14 -25 -65 -121 -112 -215 l-87 -170 -3 188 -2 187 -50 0 -50 0 0 -235 0
-235 115 0 115 0 0 45 c0 33 -4 45 -15 45 -8 0 -15 3 -15 7 0 3 51 105 113
226 69 136 119 222 130 225 13 3 17 15 17 48 l0 44 -230 0 -230 0 0 -45z"/>
<path d="M820 745 l0 -45 45 0 c25 0 45 -3 46 -7 0 -5 -51 -108 -113 -230
l-113 -223 -67 0 c-49 0 -76 5 -101 20 -93 55 -184 -55 -108 -131 35 -35 77
-38 114 -9 24 19 40 20 306 20 l281 0 0 -31 c0 -30 1 -30 48 -27 l47 3 3 353
2 352 -195 0 -195 0 0 -45z m290 -275 l0 -230 -169 0 -168 0 119 230 119 230
50 0 49 0 0 -230z m-612 -252 c18 -18 15 -42 -7 -62 -15 -14 -24 -15 -40 -6
-36 19 -22 80 19 80 9 0 21 -5 28 -12z"/>
<path d="M1037 643 c-3 -5 -42 -80 -87 -168 -46 -88 -87 -164 -91 -170 -20
-21 -4 -25 96 -25 l105 0 0 185 c0 164 -6 207 -23 178z"/>
<path d="M548 479 c-45 -90 -84 -167 -86 -170 -1 -3 15 -12 36 -21 l38 -15 91
179 c82 160 89 178 69 178 -11 0 -31 3 -43 6 -20 5 -30 -10 -105 -157z"/>
</g>
</svg>

