<?xml version="1.0" standalone="no"?>
<!DOCTYPE svg PUBLIC "-//W3C//DTD SVG 20010904//EN"
 "http://www.w3.org/TR/2001/REC-SVG-20010904/DTD/svg10.dtd">
<svg version="1.0" xmlns="http://www.w3.org/2000/svg"
 width="112.000000pt" height="125.000000pt" viewBox="0 0 112.000000 125.000000"
 preserveAspectRatio="xMidYMid meet">
<metadata>
Created by potrace 1.16, written by Peter Selinger 2001-2019
</metadata>
<g transform="translate(0.000000,125.000000) scale(0.100000,-0.100000)" stroke="none">
<path d="M508 1162 c-42 -26 -91 -55 -107 -64 -28 -16 -30 -19 -19 -43 6 -14
16 -25 21 -25 5 0 50 23 98 51 l89 51 89 -51 c48 -28 93 -51 98 -51 5 0 15 11
21 25 10 22 9 27 -11 39 -44 27 -198 116 -200 115 -1 0 -37 -22 -79 -47z"/>
<path d="M193 979 l-103 -61 0 -130 0 -129 33 3 32 3 2 109 1 108 79 45 c43
24 82 48 87 53 10 10 -8 60 -21 60 -5 -1 -54 -28 -110 -61z"/>
<path d="M860 1021 c-5 -11 -10 -24 -10 -30 0 -5 38 -31 85 -58 l84 -48 3
-110 3 -110 33 -3 33 -3 -3 132 -3 133 -100 58 c-55 32 -103 58 -107 58 -4 0
-12 -9 -18 -19z"/>
<path d="M395 868 c-112 -39 -165 -159 -115 -257 12 -25 65 -78 147 -147 71
-59 136 -114 145 -122 15 -13 30 -3 154 103 153 130 166 144 184 199 31 97
-30 195 -144 227 -38 11 -91 -3 -140 -36 l-37 -25 -32 23 c-29 21 -101 48
-123 46 -5 0 -22 -5 -39 -11z"/>
<path d="M90 466 l0 -125 99 -55 c129 -73 125 -72 140 -40 10 22 10 29 -1 35
-7 5 -47 28 -88 51 l-75 44 -5 104 -5 105 -32 3 -33 3 0 -125z"/>
<path d="M1027 583 c-4 -3 -7 -50 -7 -104 l0 -99 -77 -44 c-43 -25 -84 -49
-92 -54 -12 -6 -12 -12 -1 -32 7 -14 14 -27 16 -29 2 -2 53 25 114 59 l110 62
0 124 0 124 -28 0 c-16 0 -32 -3 -35 -7z"/>
<path d="M388 205 c-6 -14 -9 -27 -7 -29 9 -9 204 -116 211 -116 5 0 192 105
207 117 7 5 -18 53 -28 53 -5 0 -48 -22 -95 -50 l-86 -49 -85 49 c-46 28 -89
50 -95 50 -6 0 -16 -11 -22 -25z"/>
</g>
</svg>

