<?xml version="1.0" standalone="no"?>
<!DOCTYPE svg PUBLIC "-//W3C//DTD SVG 20010904//EN"
 "http://www.w3.org/TR/2001/REC-SVG-20010904/DTD/svg10.dtd">
<svg version="1.0" xmlns="http://www.w3.org/2000/svg"
 width="114.000000pt" height="126.000000pt" viewBox="0 0 114.000000 126.000000"
 preserveAspectRatio="xMidYMid meet">
<metadata>
Created by potrace 1.16, written by Peter Selinger 2001-2019
</metadata>
<g transform="translate(0.000000,126.000000) scale(0.100000,-0.100000)" stroke="none">
<path d="M485 1148 c-66 -38 -180 -104 -252 -145 l-133 -76 0 -43 c0 -36 5
-46 29 -63 16 -12 32 -21 34 -21 3 0 7 21 9 46 l3 46 155 90 c85 49 181 106
213 125 l58 35 217 -125 217 -124 5 -53 5 -53 33 27 c27 23 32 35 32 70 l0 42
-212 122 c-117 67 -231 133 -253 146 l-40 24 -120 -70z"/>
<path d="M505 954 c-49 -14 -114 -32 -142 -40 l-53 -15 0 -177 c0 -152 3 -183
19 -219 27 -58 96 -121 188 -170 l78 -42 71 38 c94 49 151 95 186 150 l28 45
0 188 0 187 -67 20 c-38 11 -96 27 -130 36 -34 8 -68 17 -75 19 -7 3 -53 -7
-103 -20z m215 -57 l115 -32 3 -160 c2 -103 -2 -169 -9 -187 -16 -39 -84 -99
-161 -142 l-67 -37 -53 27 c-87 43 -154 99 -177 147 -20 40 -21 58 -19 198 l3
154 115 31 c63 18 120 32 125 32 6 1 62 -14 125 -31z"/>
<path d="M515 870 c-38 -11 -83 -23 -100 -28 l-30 -8 -3 -125 c-2 -69 2 -140
8 -161 12 -43 76 -103 153 -144 l54 -27 65 36 c69 39 134 102 143 139 3 13 4
81 3 153 l-3 130 -95 26 c-114 33 -108 32 -195 9z m146 -67 c-5 -10 -21 -34
-35 -53 l-26 -34 45 -46 c25 -25 45 -48 45 -52 0 -5 -127 -103 -159 -123 -16
-9 -13 -2 32 63 l29 44 -46 47 -46 47 82 62 c46 34 84 61 86 62 1 0 -2 -8 -7
-17z"/>
<path d="M90 635 c0 -63 3 -115 6 -115 7 0 144 110 144 115 0 5 -137 115 -144
115 -3 0 -6 -52 -6 -115z"/>
<path d="M1040 704 c-30 -25 -61 -51 -68 -58 -11 -10 0 -23 56 -69 38 -32 72
-57 76 -57 3 0 6 52 6 115 0 63 -3 115 -7 115 -5 0 -33 -21 -63 -46z"/>
<path d="M132 452 c-29 -24 -33 -33 -30 -67 3 -43 -32 -19 331 -229 l168 -97
255 146 254 147 0 38 c0 31 -6 44 -32 66 l-33 27 -3 -46 c-2 -25 -8 -50 -15
-55 -7 -5 -104 -62 -216 -126 -125 -72 -209 -115 -219 -111 -8 3 -107 58 -218
123 l-203 117 -3 47 -3 47 -33 -27z"/>
</g>
</svg>

