<?xml version="1.0" standalone="no"?>
<!DOCTYPE svg PUBLIC "-//W3C//DTD SVG 20010904//EN"
 "http://www.w3.org/TR/2001/REC-SVG-20010904/DTD/svg10.dtd">
<svg version="1.0" xmlns="http://www.w3.org/2000/svg"
 width="64.000000pt" height="55.000000pt" viewBox="0 0 64.000000 55.000000"
 preserveAspectRatio="xMidYMid meet">
<metadata>
Created by potrace 1.16, written by Peter Selinger 2001-2019
</metadata>
<g transform="translate(0.000000,55.000000) scale(0.100000,-0.100000)" stroke="none">
<path d="M228 495 c-4 -11 -10 -80 -13 -153 -4 -73 -10 -134 -14 -136 -4 -3
-28 21 -54 52 -26 31 -60 73 -77 92 l-30 35 45 -128 c25 -71 45 -130 45 -132
0 -2 -24 3 -53 11 -28 7 -53 14 -55 14 -1 0 15 -24 38 -53 22 -30 40 -59 40
-65 0 -9 60 -12 220 -12 160 0 220 3 220 12 0 6 18 35 40 65 23 29 39 53 38
53 -2 0 -27 -7 -55 -14 -29 -8 -53 -13 -53 -11 0 2 20 61 45 132 l45 128 -30
-35 c-17 -19 -51 -61 -77 -92 -26 -31 -50 -55 -54 -52 -4 2 -10 63 -14 136 -4
73 -11 141 -14 152 -5 13 -19 -20 -46 -108 -22 -69 -42 -126 -45 -126 -3 0
-24 57 -46 128 -28 87 -42 121 -46 107z"/>
</g>
</svg>