<?xml version="1.0" standalone="no"?>
<!DOCTYPE svg PUBLIC "-//W3C//DTD SVG 20010904//EN"
 "http://www.w3.org/TR/2001/REC-SVG-20010904/DTD/svg10.dtd">
<svg version="1.0" xmlns="http://www.w3.org/2000/svg"
 width="64.000000pt" height="54.000000pt" viewBox="0 0 64.000000 54.000000"
 preserveAspectRatio="xMidYMid meet">
<metadata>
Created by potrace 1.16, written by Peter Selinger 2001-2019
</metadata>
<path d="M137 506 c-48 -18 -74 -41 -98 -88 -45 -89 -20 -139 141 -278 71 -60
132 -110 137 -110 5 0 24 13 43 30 l35 29 -32 1 -33 0 0 55 0 55 40 0 c39 0
40 1 40 34 0 43 19 58 67 54 37 -3 38 -4 41 -45 2 -24 6 -43 9 -43 8 0 50 46
70 76 23 36 20 115 -6 158 -52 84 -155 105 -235 49 l-44 -31 -21 22 c-19 20
-82 47 -107 46 -5 -1 -26 -7 -47 -14z"/>
<path d="M437 263 c-2 -5 -3 -25 -3 -45 l1 -38 -42 0 c-42 0 -43 -1 -43 -34 0
-34 1 -35 42 -38 41 -3 42 -3 42 -43 1 -38 3 -40 34 -43 32 -3 32 -3 32 42 l0
46 45 0 c45 0 45 0 45 35 0 35 0 35 -45 35 l-45 0 0 45 c0 43 -1 45 -29 45
-17 0 -32 -3 -34 -7z"/>
</g>
</svg>
