<?xml version="1.0" standalone="no"?>
<!DOCTYPE svg PUBLIC "-//W3C//DTD SVG 20010904//EN"
 "http://www.w3.org/TR/2001/REC-SVG-20010904/DTD/svg10.dtd">
<svg version="1.0" xmlns="http://www.w3.org/2000/svg"
 width="64.000000pt" height="62.000000pt" viewBox="0 0 64.000000 62.000000"
 preserveAspectRatio="xMidYMid meet">
<metadata>
Created by potrace 1.16, written by Peter Selinger 2001-2019
</metadata>
<g transform="translate(0.000000,62.000000) scale(0.100000,-0.100000)" stroke="none">
<path d="M212 531 l-12 -60 -55 6 c-61 6 -61 7 -40 -62 8 -27 12 -52 9 -57 -3
-5 -26 -19 -52 -32 l-46 -23 39 -21 c70 -37 68 -33 46 -93 -12 -30 -21 -55
-21 -56 0 -2 27 -3 60 -3 l59 0 10 -37 c6 -21 11 -44 11 -50 0 -21 20 -15 61
18 l39 31 39 -31 c41 -33 61 -39 61 -18 0 6 5 29 11 50 l10 37 59 0 c33 0 60
1 60 3 0 1 -9 26 -21 56 -22 60 -24 56 46 93 l39 21 -49 24 c-28 14 -51 27
-53 28 -2 2 4 27 12 56 9 29 16 57 16 62 0 6 -22 7 -55 3 l-54 -6 -13 60 c-6
33 -16 60 -21 60 -5 0 -25 -13 -44 -30 -18 -16 -38 -30 -43 -30 -5 0 -25 14
-43 30 -19 17 -39 30 -44 30 -5 0 -15 -27 -21 -59z m76 -127 c28 -20 30 -69 3
-84 -45 -23 -91 -1 -91 45 0 23 32 55 55 55 6 0 21 -7 33 -16z m136 -3 c3 -5
-23 -43 -59 -86 -35 -43 -75 -93 -87 -111 -25 -37 -36 -42 -44 -19 -4 8 18 42
53 82 32 38 69 85 83 106 24 36 43 46 54 28z m24 -149 c16 -21 15 -33 -4 -60
-31 -45 -110 -14 -102 39 6 45 76 59 106 21z"/>
<path d="M244 376 c-4 -10 -2 -22 4 -28 8 -8 13 -7 18 6 4 10 2 22 -4 28 -8 8
-13 7 -18 -6z"/>
<path d="M385 230 c-7 -12 2 -30 16 -30 5 0 9 9 9 20 0 21 -15 27 -25 10z"/>
</g>
</svg>

