<?xml version="1.0" standalone="no"?>
<!DOCTYPE svg PUBLIC "-//W3C//DTD SVG 20010904//EN"
 "http://www.w3.org/TR/2001/REC-SVG-20010904/DTD/svg10.dtd">
<svg version="1.0" xmlns="http://www.w3.org/2000/svg"
 width="36.000000pt" height="64.000000pt" viewBox="0 0 36.000000 64.000000"
 preserveAspectRatio="xMidYMid meet">
<metadata>
Created by potrace 1.16, written by Peter Selinger 2001-2019
</metadata>
<path d="M220 613 c-30 -2 -70 -6 -89 -9 l-34 -5 37 -38 36 -37 -75 -74 -74
-73 69 -77 69 -76 -62 -62 -61 -62 39 -40 39 -40 102 101 103 102 -70 76 -69
75 35 35 35 35 34 -33 35 -34 5 34 c3 19 8 73 11 122 l6 87 -33 -2 c-18 -1
-58 -3 -88 -5z"/>
</g>
</svg>
