<?xml version="1.0" standalone="no"?>
<!DOCTYPE svg PUBLIC "-//W3C//DTD SVG 20010904//EN"
 "http://www.w3.org/TR/2001/REC-SVG-20010904/DTD/svg10.dtd">
<svg version="1.0" xmlns="http://www.w3.org/2000/svg"
 width="56.000000pt" height="64.000000pt" viewBox="0 0 56.000000 64.000000"
 preserveAspectRatio="xMidYMid meet">
<metadata>
Created by potrace 1.16, written by Peter Selinger 2001-2019
</metadata>
<g transform="translate(0.000000,64.000000) scale(0.100000,-0.100000)" stroke="none">
<path d="M150 546 l-125 -74 0 -152 0 -152 128 -74 127 -75 128 75 127 74 0
152 0 152 -125 74 c-69 40 -127 73 -130 73 -3 0 -61 -33 -130 -73z m246 -15
l119 -69 0 -142 0 -142 -117 -68 -118 -68 -117 68 -118 68 0 142 0 142 115 68
c63 37 116 68 116 69 1 1 55 -30 120 -68z"/>
<path d="M170 507 l-105 -63 0 -124 0 -124 107 -63 107 -63 108 63 108 62 0
125 0 125 -105 62 c-58 34 -107 62 -110 62 -3 0 -52 -28 -110 -62z m156 -52
c-9 -14 -23 -37 -33 -51 -16 -25 -15 -26 27 -69 24 -25 42 -46 39 -49 -9 -8
-137 -104 -149 -111 -15 -9 -11 -1 31 61 l28 41 -40 39 c-21 21 -38 42 -37 46
3 8 139 117 147 118 2 0 -4 -11 -13 -25z"/>
</g>
</svg>

