<?xml version="1.0" standalone="no"?>
<!DOCTYPE svg PUBLIC "-//W3C//DTD SVG 20010904//EN"
 "http://www.w3.org/TR/2001/REC-SVG-20010904/DTD/svg10.dtd">
<svg version="1.0" xmlns="http://www.w3.org/2000/svg"
 width="54.000000pt" height="64.000000pt" viewBox="0 0 54.000000 64.000000"
 preserveAspectRatio="xMidYMid meet">
<metadata>
Created by potrace 1.16, written by Peter Selinger 2001-2019
</metadata>
<g transform="translate(0.000000,64.000000) scale(0.100000,-0.100000)" stroke="none">
<path d="M140 586 l-115 -32 -3 -165 c-1 -101 2 -174 8 -190 17 -41 99 -114
172 -154 l67 -36 62 33 c73 38 162 116 178 156 8 18 11 84 9 191 l-3 164 -120
34 c-66 18 -124 32 -130 32 -5 0 -62 -15 -125 -33z m176 -20 c27 -8 75 -21
107 -30 l57 -17 0 -156 0 -157 -53 -50 c-28 -28 -75 -63 -103 -79 l-52 -27
-53 27 c-29 16 -77 51 -106 79 l-53 50 0 156 0 157 53 14 c70 20 152 45 153
46 0 1 23 -5 50 -13z"/>
<path d="M165 516 l-80 -23 -3 -125 c-2 -115 -1 -127 20 -159 26 -38 140 -119
168 -119 28 0 142 81 168 119 21 32 22 44 20 159 l-3 125 -85 23 c-102 28
-103 28 -205 0z m140 -83 c-14 -21 -25 -42 -25 -47 0 -6 17 -28 38 -49 l37
-38 -30 -25 c-52 -42 -115 -85 -115 -79 0 3 11 24 26 46 l25 40 -35 40 c-20
21 -36 41 -36 44 0 7 124 104 133 105 4 0 -4 -17 -18 -37z"/>
</g>
</svg>
