<?xml version="1.0" standalone="no"?>
<!DOCTYPE svg PUBLIC "-//W3C//DTD SVG 20010904//EN"
 "http://www.w3.org/TR/2001/REC-SVG-20010904/DTD/svg10.dtd">
<svg version="1.0" xmlns="http://www.w3.org/2000/svg"
 width="53.000000pt" height="64.000000pt" viewBox="0 0 53.000000 64.000000"
 preserveAspectRatio="xMidYMid meet">
<metadata>
Created by potrace 1.16, written by Peter Selinger 2001-2019
</metadata>
<g transform="translate(0.000000,64.000000) scale(0.100000,-0.100000)" stroke="none">
<path d="M140 587 l-115 -32 -3 -163 c-2 -136 0 -169 14 -199 19 -40 103 -109
181 -150 l51 -27 83 51 c46 27 84 54 85 59 2 5 -30 32 -69 60 l-72 52 -3 -34
-3 -35 -47 56 c-32 38 -52 53 -63 50 -12 -4 -21 5 -32 32 -22 58 -40 152 -32
180 6 25 8 25 63 20 31 -3 83 -15 115 -27 46 -17 57 -25 52 -39 -4 -13 10 -30
47 -62 l53 -44 -33 -5 -33 -5 52 -74 52 -74 14 27 c10 19 13 66 11 188 l-3
162 -100 28 c-144 40 -140 40 -265 5z"/>
<path d="M173 463 c-26 -10 -5 -143 22 -143 8 0 27 -16 42 -35 25 -32 28 -33
33 -15 5 19 12 16 82 -35 42 -30 79 -55 83 -55 4 0 -18 36 -49 80 -31 44 -56
82 -56 85 0 3 8 5 17 5 13 0 9 8 -15 33 -18 18 -29 36 -26 40 14 14 -106 50
-133 40z"/>
</g>
</svg>

