<?xml version="1.0" standalone="no"?>
<!DOCTYPE svg PUBLIC "-//W3C//DTD SVG 20010904//EN"
 "http://www.w3.org/TR/2001/REC-SVG-20010904/DTD/svg10.dtd">
<svg version="1.0" xmlns="http://www.w3.org/2000/svg"
 width="53.000000pt" height="64.000000pt" viewBox="0 0 53.000000 64.000000"
 preserveAspectRatio="xMidYMid meet">
<metadata>
Created by potrace 1.16, written by Peter Selinger 2001-2019
</metadata>
<g transform="translate(0.000000,64.000000) scale(0.100000,-0.100000)" stroke="none">
<path d="M140 596 l-115 -32 -3 -170 -2 -169 29 -46 c18 -29 53 -62 97 -92
113 -74 113 -74 178 -37 31 17 56 35 56 40 0 5 -47 58 -104 118 -112 119 -170
214 -164 268 3 26 7 29 33 26 61 -6 157 -71 263 -175 l102 -102 -2 169 -3 169
-120 34 c-66 18 -122 32 -125 32 -3 0 -57 -15 -120 -33z"/>
<path d="M153 435 c3 -21 18 -56 33 -78 l26 -39 44 43 44 43 -43 28 c-24 15
-58 31 -76 34 l-34 7 6 -38z"/>
<path d="M267 352 c-20 -21 -37 -42 -37 -48 0 -5 20 -30 45 -54 l45 -44 40 39
c22 21 40 44 40 49 0 11 -80 96 -90 96 -3 0 -23 -17 -43 -38z"/>
<path d="M371 236 c-34 -35 -39 -45 -28 -54 10 -9 22 -2 56 32 34 35 39 45 28
54 -10 9 -22 2 -56 -32z"/>
</g>
</svg>

