<?xml version="1.0" standalone="no"?>
<!DOCTYPE svg PUBLIC "-//W3C//DTD SVG 20010904//EN"
 "http://www.w3.org/TR/2001/REC-SVG-20010904/DTD/svg10.dtd">
<svg version="1.0" xmlns="http://www.w3.org/2000/svg"
 width="64.000000pt" height="58.000000pt" viewBox="0 0 64.000000 58.000000"
 preserveAspectRatio="xMidYMid meet">
<metadata>
Created by potrace 1.16, written by Peter Selinger 2001-2019
</metadata>
<g transform="translate(0.000000,58.000000) scale(0.100000,-0.100000)" stroke="none">
<path d="M200 535 c-52 -13 -97 -24 -99 -24 -3 -1 6 -12 19 -26 l24 -25 -62
-63 -62 -62 108 -108 c59 -59 112 -107 118 -107 13 0 54 42 54 55 0 5 -34 44
-75 85 l-75 76 30 29 30 29 29 -21 28 -21 22 96 c11 53 21 100 21 105 0 9 2 9
-110 -18z"/>
<path d="M365 430 l-29 -30 79 -80 79 -80 -28 -29 -29 -30 -31 26 c-16 14 -31
21 -33 17 -8 -29 -42 -198 -40 -200 3 -3 172 33 196 42 11 3 9 10 -9 30 l-24
24 62 63 62 62 -108 108 c-59 59 -110 107 -113 107 -3 0 -18 -14 -34 -30z"/>
</g>
</svg>
