<?xml version="1.0" standalone="no"?>
<!DOCTYPE svg PUBLIC "-//W3C//DTD SVG 20010904//EN"
 "http://www.w3.org/TR/2001/REC-SVG-20010904/DTD/svg10.dtd">
<svg version="1.0" xmlns="http://www.w3.org/2000/svg"
 width="56.000000pt" height="64.000000pt" viewBox="0 0 56.000000 64.000000"
 preserveAspectRatio="xMidYMid meet">
<metadata>
Created by potrace 1.16, written by Peter Selinger 2001-2019
</metadata>
<g transform="translate(0.000000,64.000000) scale(0.100000,-0.100000)" stroke="none">
<path d="M199 618 c-1 -2 -2 -15 -3 -30 l-2 -28 83 0 83 0 0 30 0 30 -80 0
c-44 0 -81 -1 -81 -2z"/>
<path d="M225 531 c-130 -34 -215 -150 -202 -276 6 -62 27 -107 71 -153 53
-57 101 -77 186 -77 57 0 84 5 115 22 149 80 189 268 84 396 -56 68 -174 109
-254 88z m156 -58 c74 -38 111 -93 117 -172 5 -72 -10 -121 -51 -168 -86 -98
-248 -98 -334 0 -41 47 -56 96 -51 168 6 78 43 133 117 171 71 37 129 37 202
1z"/>
<path d="M211 460 c-133 -57 -167 -215 -67 -315 81 -81 191 -81 272 0 119 119
44 313 -124 322 -32 1 -68 -2 -81 -7z m88 -116 c7 -47 11 -87 10 -88 -20 -17
-149 -105 -149 -101 0 2 20 33 45 68 36 52 47 77 56 135 7 40 15 72 18 72 4 0
13 -39 20 -86z"/>
</g>
</svg>

